<?xml version="1.0" encoding="UTF-8" standalone="no"?>
<svg
   xmlns:dc="http://purl.org/dc/elements/1.1/"
   xmlns:cc="http://creativecommons.org/ns#"
   xmlns:rdf="http://www.w3.org/1999/02/22-rdf-syntax-ns#"
   xmlns:svg="http://www.w3.org/2000/svg"
   xmlns="http://www.w3.org/2000/svg"
   xmlns:sodipodi="http://sodipodi.sourceforge.net/DTD/sodipodi-0.dtd"
   xmlns:inkscape="http://www.inkscape.org/namespaces/inkscape"
   version="1.1"
   viewBox="0 0 937.65418 116.22733"
   stroke-miterlimit="10"
   id="svg3858"
   sodipodi:docname="KubeForm.svg"
   width="937.65417"
   height="116.22733"
   style="fill:none;stroke:none;stroke-linecap:square;stroke-miterlimit:10"
   inkscape:version="0.92.4 (f8dce91, 2019-08-02)">
  <metadata
     id="metadata3864">
    <rdf:RDF>
      <cc:Work
         rdf:about="">
        <dc:format>image/svg+xml</dc:format>
        <dc:type
           rdf:resource="http://purl.org/dc/dcmitype/StillImage" />
      </cc:Work>
    </rdf:RDF>
  </metadata>
  <defs
     id="defs3862" />
  <sodipodi:namedview
     pagecolor="#ffffff"
     bordercolor="#666666"
     borderopacity="1"
     objecttolerance="10"
     gridtolerance="10"
     guidetolerance="10"
     inkscape:pageopacity="0"
     inkscape:pageshadow="2"
     inkscape:window-width="1850"
     inkscape:window-height="1016"
     id="namedview3860"
     showgrid="false"
     inkscape:zoom="1.5314815"
     inkscape:cx="419.92745"
     inkscape:cy="17.303521"
     inkscape:window-x="70"
     inkscape:window-y="27"
     inkscape:window-maximized="1"
     inkscape:current-layer="svg3858" />
  <clipPath
     id="g73d6cb5c19_0_5.0">
    <path
       d="M 0,0 H 960 V 540 H 0 Z"
       id="path3767"
       inkscape:connector-curvature="0"
       style="clip-rule:nonzero" />
  </clipPath>
  <g
     clip-path="url(#g73d6cb5c19_0_5.0)"
     id="g3856"
     transform="translate(-15.6711,-212.21282)">
    <path
       d="M 0,0 H 960 V 540 H 0 Z"
       id="path3770"
       inkscape:connector-curvature="0"
       style="fill:#000000;fill-opacity:0;fill-rule:evenodd" />
    <path
       d="M 18.208433,251.32326 H 147.12181 v 37.57481 H 18.208433 Z"
       id="path3772"
       inkscape:connector-curvature="0"
       style="fill:#ffe599;fill-rule:evenodd" />
    <path
       d="M 18.208433,251.32326 H 147.12181 v 37.57481 H 18.208433 Z"
       id="path3774"
       inkscape:connector-curvature="0"
       style="fill-rule:evenodd;stroke:#595959;stroke-width:1;stroke-linecap:butt;stroke-linejoin:round" />
    <path
       d="m 48.84797,269.3794 0.28125,-1.375 h 0.921875 l 0.21875,-1.10938 2.140625,-1.29687 -0.5,2.40625 h 1.140625 l -0.28125,1.375 H 51.62922 l -0.609375,2.90625 q -0.171875,0.78125 -0.171875,0.89062 0,0.21875 0.140625,0.34375 0.140625,0.10938 0.5,0.10938 0.125,0 0.609375,-0.0469 l -0.28125,1.39063 q -0.484375,0.0937 -1,0.0937 -0.984375,0 -1.4375,-0.375 -0.4375,-0.375 -0.4375,-1.0625 0,-0.3125 0.234375,-1.46875 l 0.578125,-2.78125 z m 8.78212,-1.375 -0.28125,1.35937 h -1.328125 l -1.15625,5.54688 H 53.00509 l 1.15625,-5.54688 h -1.046875 l 0.296875,-1.35937 h 1.03125 l 0.15625,-0.71875 q 0.1875,-0.875 0.34375,-1.17188 0.21875,-0.42187 0.65625,-0.65625 0.4375,-0.25 1.15625,-0.25 0.859375,0 1.8125,0.3125 l -0.375,1.32813 q -0.671875,-0.21875 -1.078125,-0.21875 -0.328125,0 -0.484375,0.20312 -0.09375,0.125 -0.21875,0.67188 l -0.09375,0.5 z m -0.608505,4.96875 1.8125,-0.28125 q 0.234375,0.57812 0.59375,0.8125 0.359375,0.23437 0.96875,0.23437 0.640625,0 1.03125,-0.28125 0.265625,-0.20312 0.265625,-0.48437 0,-0.1875 -0.140625,-0.32813 -0.140625,-0.15625 -0.78125,-0.35937 -1.6875,-0.5625 -2.09375,-0.875 -0.625,-0.51563 -0.625,-1.32813 0,-0.82812 0.609375,-1.42187 0.859375,-0.82813 2.53125,-0.82813 1.34375,0 2.015625,0.5 0.6875,0.48438 0.875,1.3125 l -1.734375,0.29688 q -0.125,-0.375 -0.4375,-0.5625 -0.421875,-0.25 -1,-0.25 -0.59375,0 -0.859375,0.20312 -0.25,0.1875 -0.25,0.4375 0,0.26563 0.265625,0.42188 0.15625,0.10937 1.046875,0.375 1.375,0.39062 1.828125,0.78125 0.65625,0.53125 0.65625,1.29687 0,0.98438 -0.828125,1.70313 -0.828125,0.71875 -2.328125,0.71875 -1.5,0 -2.328125,-0.54688 -0.8125,-0.54687 -1.09375,-1.54687 z m 8.115601,-3.59375 0.28125,-1.375 h 0.921875 l 0.21875,-1.10938 2.140625,-1.29687 -0.5,2.40625 h 1.140625 l -0.28125,1.375 h -1.140625 l -0.609375,2.90625 q -0.171875,0.78125 -0.171875,0.89062 0,0.21875 0.140625,0.34375 0.140625,0.10938 0.5,0.10938 0.125,0 0.609375,-0.0469 l -0.28125,1.39063 q -0.484375,0.0937 -1,0.0937 -0.984375,0 -1.4375,-0.375 -0.4375,-0.375 -0.4375,-1.0625 0,-0.3125 0.234375,-1.46875 l 0.578125,-2.78125 z m 6.610245,0.57812 -1.828125,-0.15625 q 0.3125,-0.92187 1.09375,-1.4375 0.78125,-0.53125 2.0625,-0.53125 1.328125,0 1.96875,0.54688 0.640625,0.53125 0.640625,1.3125 0,0.3125 -0.0625,0.67187 -0.04687,0.34375 -0.375,1.82813 -0.28125,1.23437 -0.28125,1.73437 0,0.4375 0.15625,0.98438 h -1.8125 q -0.109375,-0.375 -0.140625,-0.78125 -0.40625,0.45312 -0.9375,0.70312 -0.53125,0.23438 -1.078125,0.23438 -0.859375,0 -1.421875,-0.5625 -0.5625,-0.5625 -0.5625,-1.4375 0,-1 0.609375,-1.57813 0.625,-0.59375 2.203125,-0.71875 1.34375,-0.10937 1.78125,-0.26562 0.125,-0.39063 0.125,-0.625 0,-0.3125 -0.25,-0.5 -0.234375,-0.20313 -0.703125,-0.20313 -0.5,0 -0.796875,0.20313 -0.28125,0.20312 -0.390625,0.57812 z m 1.78125,1.73438 q -0.171875,0.0469 -0.453125,0.0781 -1.40625,0.17188 -1.84375,0.5 -0.296875,0.23438 -0.296875,0.625 0,0.32813 0.234375,0.5625 0.234375,0.21875 0.609375,0.21875 0.421875,0 0.796875,-0.20312 0.375,-0.20313 0.5625,-0.53125 0.1875,-0.32813 0.328125,-1 z m 3.45935,-2.3125 0.28125,-1.375 h 0.921875 l 0.21875,-1.10938 2.140625,-1.29687 -0.5,2.40625 h 1.140625 l -0.28125,1.375 h -1.140625 l -0.609375,2.90625 q -0.171875,0.78125 -0.171875,0.89062 0,0.21875 0.140625,0.34375 0.140625,0.10938 0.5,0.10938 0.125,0 0.609375,-0.0469 l -0.28125,1.39063 q -0.484375,0.0937 -1,0.0937 -0.984375,0 -1.4375,-0.375 -0.4375,-0.375 -0.4375,-1.0625 0,-0.3125 0.234375,-1.46875 l 0.578125,-2.78125 z m 10.704002,2.65625 h -4.6875 q 0,0.10937 0,0.17187 0,0.6875 0.390625,1.10938 0.390625,0.42187 0.953125,0.42187 0.9375,0 1.453125,-0.96875 l 1.671875,0.28125 q -0.484375,1.01563 -1.3125,1.51563 -0.8125,0.5 -1.828125,0.5 -1.390625,0 -2.265632,-0.875 -0.859375,-0.875 -0.859375,-2.32813 0,-1.42187 0.78125,-2.53125 1.078132,-1.5 3.062507,-1.5 1.265625,0 2.015625,0.79688 0.75,0.78125 0.75,2.1875 0,0.67187 -0.125,1.21875 z m -1.578125,-1.14063 q 0,-0.125 0,-0.1875 0,-0.76562 -0.34375,-1.14062 -0.34375,-0.39063 -0.921875,-0.39063 -0.578125,0 -1.046875,0.4375 -0.453125,0.42188 -0.609375,1.28125 z"
       id="path3776"
       inkscape:connector-curvature="0"
       style="fill:#000000;fill-rule:nonzero" />
    <path
       d="m 96.901245,274.91064 v -0.875 q -0.65625,1.03125 -1.9375,1.03125 -0.8125,0 -1.515625,-0.45313 -0.6875,-0.45312 -1.078125,-1.26562 -0.375,-0.82813 -0.375,-1.89063 0,-1.03125 0.34375,-1.875 0.34375,-0.84375 1.03125,-1.28125 0.703125,-0.45312 1.546875,-0.45312 0.625,0 1.109375,0.26562 0.5,0.25 0.796875,0.67188 v -3.42188 h 1.171875 v 9.54688 z m -3.703125,-3.45313 q 0,1.32813 0.5625,1.98438 0.5625,0.65625 1.328125,0.65625 0.765625,0 1.296875,-0.625 0.53125,-0.625 0.53125,-1.90625 0,-1.42188 -0.546875,-2.07813 -0.546875,-0.67187 -1.34375,-0.67187 -0.78125,0 -1.3125,0.64062 -0.515625,0.625 -0.515625,2 z m 11.14685,2.59375 q -0.65625,0.5625 -1.26562,0.79688 -0.59375,0.21875 -1.28125,0.21875 -1.14063,0 -1.75,-0.54688 -0.609379,-0.5625 -0.609379,-1.4375 0,-0.5 0.21875,-0.92187 0.234375,-0.42188 0.609379,-0.67188 0.375,-0.25 0.84375,-0.39062 0.34375,-0.0781 1.04687,-0.17188 1.42188,-0.17187 2.09375,-0.40625 0,-0.23437 0,-0.29687 0,-0.71875 -0.32812,-1.01563 -0.45313,-0.39062 -1.34375,-0.39062 -0.8125,0 -1.21875,0.29687 -0.39063,0.28125 -0.57813,1.01563 l -1.140624,-0.15625 q 0.15625,-0.73438 0.515624,-1.1875 0.35938,-0.45313 1.03125,-0.6875 0.67188,-0.25 1.5625,-0.25 0.89063,0 1.4375,0.20312 0.5625,0.20313 0.8125,0.53125 0.26563,0.3125 0.375,0.79688 0.0469,0.29687 0.0469,1.07812 v 1.5625 q 0,1.625 0.0781,2.0625 0.0781,0.4375 0.29688,0.82813 h -1.21875 q -0.1875,-0.35938 -0.23438,-0.85938 z m -0.0937,-2.60937 q -0.64062,0.26562 -1.92187,0.4375 -0.71875,0.10937 -1.01563,0.25 -0.29687,0.125 -0.46875,0.375 -0.15625,0.25 -0.15625,0.54687 0,0.46875 0.34375,0.78125 0.35938,0.3125 1.04688,0.3125 0.67187,0 1.20312,-0.29687 0.53125,-0.29688 0.78125,-0.8125 0.1875,-0.39063 0.1875,-1.17188 z m 5.5531,2.42187 0.17188,1.03125 q -0.5,0.10938 -0.89063,0.10938 -0.64062,0 -1,-0.20313 -0.34375,-0.20312 -0.48437,-0.53125 -0.14063,-0.32812 -0.14063,-1.39062 v -3.96875 h -0.85937 v -0.90625 h 0.85937 v -1.71875 l 1.17188,-0.70313 v 2.42188 h 1.17187 v 0.90625 h -1.17187 v 4.04687 q 0,0.5 0.0469,0.64063 0.0625,0.14062 0.20313,0.23437 0.14062,0.0781 0.40625,0.0781 0.20312,0 0.51562,-0.0469 z m 5.65611,0.1875 q -0.65625,0.5625 -1.26562,0.79688 -0.59375,0.21875 -1.28125,0.21875 -1.14063,0 -1.75,-0.54688 -0.60938,-0.5625 -0.60938,-1.4375 0,-0.5 0.21875,-0.92187 0.23438,-0.42188 0.60938,-0.67188 0.375,-0.25 0.84375,-0.39062 0.34375,-0.0781 1.04687,-0.17188 1.42188,-0.17187 2.09375,-0.40625 0,-0.23437 0,-0.29687 0,-0.71875 -0.32812,-1.01563 -0.45313,-0.39062 -1.34375,-0.39062 -0.8125,0 -1.21875,0.29687 -0.39063,0.28125 -0.57813,1.01563 l -1.14062,-0.15625 q 0.15625,-0.73438 0.51562,-1.1875 0.35938,-0.45313 1.03125,-0.6875 0.67188,-0.25 1.5625,-0.25 0.89063,0 1.4375,0.20312 0.5625,0.20313 0.8125,0.53125 0.26563,0.3125 0.375,0.79688 0.0469,0.29687 0.0469,1.07812 v 1.5625 q 0,1.625 0.0781,2.0625 0.0781,0.4375 0.29688,0.82813 h -1.21875 q -0.1875,-0.35938 -0.23438,-0.85938 z m -0.0937,-2.60937 q -0.64062,0.26562 -1.92187,0.4375 -0.71875,0.10937 -1.01563,0.25 -0.29687,0.125 -0.46875,0.375 -0.15625,0.25 -0.15625,0.54687 0,0.46875 0.34375,0.78125 0.35938,0.3125 1.04688,0.3125 0.67187,0 1.20312,-0.29687 0.53125,-0.29688 0.78125,-0.8125 0.1875,-0.39063 0.1875,-1.17188 z"
       id="path3778"
       inkscape:connector-curvature="0"
       style="fill:#000000;fill-rule:nonzero" />
    <path
       d="m 236.78848,251.32326 h 128.91339 v 37.57481 H 236.78848 Z"
       id="path3780"
       inkscape:connector-curvature="0"
       style="fill:#ffe599;fill-rule:evenodd" />
    <path
       d="m 236.78848,251.32326 h 128.91339 v 37.57481 H 236.78848 Z"
       id="path3782"
       inkscape:connector-curvature="0"
       style="fill-rule:evenodd;stroke:#595959;stroke-width:1;stroke-linecap:butt;stroke-linejoin:round" />
    <path
       d="m 271.29507,263.5669 1.26562,0.3125 q -0.39062,1.5625 -1.42187,2.375 -1.03125,0.8125 -2.53125,0.8125 -1.53125,0 -2.5,-0.625 -0.96875,-0.625 -1.48438,-1.8125 -0.5,-1.1875 -0.5,-2.5625 0,-1.48438 0.5625,-2.59375 0.57813,-1.10938 1.625,-1.6875 1.0625,-0.57813 2.32813,-0.57813 1.42187,0 2.39062,0.73438 0.98438,0.71875 1.375,2.04687 l -1.25,0.29688 q -0.32812,-1.04688 -0.96875,-1.51563 -0.625,-0.48437 -1.57812,-0.48437 -1.09375,0 -1.84375,0.53125 -0.73438,0.53125 -1.03125,1.42187 -0.29688,0.875 -0.29688,1.82813 0,1.21875 0.34375,2.125 0.35938,0.90625 1.10938,1.35937 0.75,0.4375 1.625,0.4375 1.0625,0 1.79687,-0.60937 0.73438,-0.60938 0.98438,-1.8125 z m 2.23453,-0.10938 q 0,-1.92187 1.07812,-2.84375 0.89063,-0.76562 2.17188,-0.76562 1.42187,0 2.32812,0.9375 0.90625,0.92187 0.90625,2.57812 0,1.32813 -0.40625,2.09375 -0.39062,0.76563 -1.15625,1.1875 -0.76562,0.42188 -1.67187,0.42188 -1.45313,0 -2.35938,-0.92188 -0.89062,-0.9375 -0.89062,-2.6875 z m 1.20312,0 q 0,1.32813 0.57813,1.98438 0.59375,0.65625 1.46875,0.65625 0.875,0 1.45312,-0.65625 0.57813,-0.67188 0.57813,-2.03125 0,-1.28125 -0.59375,-1.9375 -0.57813,-0.65625 -1.4375,-0.65625 -0.875,0 -1.46875,0.65625 -0.57813,0.65625 -0.57813,1.98437 z m 6.64685,3.45313 v -6.90625 h 1.04688 v 0.96875 q 0.32812,-0.51563 0.85937,-0.8125 0.54688,-0.3125 1.23438,-0.3125 0.78125,0 1.26562,0.3125 0.48438,0.3125 0.6875,0.89062 0.82813,-1.20312 2.14063,-1.20312 1.03125,0 1.57812,0.57812 0.5625,0.5625 0.5625,1.73438 v 4.75 h -1.17187 v -4.35938 q 0,-0.70312 -0.125,-1 -0.10938,-0.3125 -0.40625,-0.5 -0.29688,-0.1875 -0.70313,-0.1875 -0.71875,0 -1.20312,0.48438 -0.48438,0.48437 -0.48438,1.54687 v 4.01563 h -1.17187 v -4.48438 q 0,-0.78125 -0.29688,-1.17187 -0.28125,-0.39063 -0.92187,-0.39063 -0.5,0 -0.92188,0.26563 -0.42187,0.25 -0.60937,0.75 -0.1875,0.5 -0.1875,1.45312 v 3.57813 z m 11.10242,2.65625 v -9.5625 h 1.07813 v 0.89062 q 0.375,-0.53125 0.84375,-0.78125 0.48437,-0.26562 1.15625,-0.26562 0.875,0 1.54687,0.45312 0.6875,0.45313 1.03125,1.28125 0.34375,0.82813 0.34375,1.82813 0,1.04687 -0.375,1.90625 -0.375,0.84375 -1.10937,1.29687 -0.71875,0.45313 -1.53125,0.45313 -0.57813,0 -1.04688,-0.25 -0.46875,-0.25 -0.76562,-0.625 v 3.375 z m 1.0625,-6.07813 q 0,1.34375 0.53125,1.98438 0.54688,0.625 1.3125,0.625 0.78125,0 1.34375,-0.65625 0.5625,-0.65625 0.5625,-2.04688 0,-1.3125 -0.54687,-1.96875 -0.54688,-0.67187 -1.29688,-0.67187 -0.75,0 -1.32812,0.70312 -0.57813,0.70313 -0.57813,2.03125 z m 6.33435,3.42188 v -6.90625 h 1.06253 v 1.04687 q 0.40625,-0.73437 0.73438,-0.96875 0.34375,-0.23437 0.76562,-0.23437 0.59375,0 1.20313,0.375 l -0.40625,1.07812 q -0.4375,-0.25 -0.85938,-0.25 -0.39062,0 -0.70312,0.23438 -0.29688,0.23437 -0.42188,0.64062 -0.20312,0.625 -0.20312,1.35938 v 3.625 z m 9.18839,-2.21875 1.20312,0.14062 q -0.28125,1.0625 -1.0625,1.65625 -0.76562,0.57813 -1.96875,0.57813 -1.51562,0 -2.40625,-0.9375 -0.89062,-0.9375 -0.89062,-2.60938 0,-1.75 0.89062,-2.70312 0.90625,-0.96875 2.34375,-0.96875 1.39063,0 2.26563,0.9375 0.875,0.9375 0.875,2.65625 0,0.10937 0,0.3125 h -5.15625 q 0.0625,1.14062 0.64062,1.75 0.57813,0.59375 1.4375,0.59375 0.65625,0 1.10938,-0.32813 0.45312,-0.34375 0.71875,-1.07812 z m -3.84375,-1.90625 h 3.85937 q -0.0781,-0.85938 -0.4375,-1.29688 -0.5625,-0.6875 -1.45312,-0.6875 -0.8125,0 -1.35938,0.54688 -0.54687,0.53125 -0.60937,1.4375 z m 6.0531,2.0625 1.15625,-0.1875 q 0.10937,0.70312 0.54687,1.07812 0.45313,0.35938 1.25,0.35938 0.8125,0 1.20313,-0.32813 0.39062,-0.32812 0.39062,-0.76562 0,-0.39063 -0.35937,-0.625 -0.23438,-0.15625 -1.1875,-0.39063 -1.29688,-0.32812 -1.79688,-0.5625 -0.48437,-0.25 -0.75,-0.65625 -0.25,-0.42187 -0.25,-0.9375 0,-0.45312 0.20313,-0.84375 0.21875,-0.40625 0.57812,-0.67187 0.28125,-0.1875 0.75,-0.32813 0.46875,-0.14062 1.01563,-0.14062 0.8125,0 1.42187,0.23437 0.60938,0.23438 0.90625,0.64063 0.29688,0.39062 0.40625,1.0625 l -1.14062,0.15625 q -0.0781,-0.53125 -0.45313,-0.82813 -0.375,-0.3125 -1.0625,-0.3125 -0.8125,0 -1.15625,0.26563 -0.34375,0.26562 -0.34375,0.625 0,0.23437 0.14063,0.42187 0.15625,0.1875 0.45312,0.3125 0.17188,0.0625 1.03125,0.29688 1.25,0.32812 1.73438,0.54687 0.5,0.20313 0.78125,0.60938 0.28125,0.40625 0.28125,1 0,0.59375 -0.34375,1.10937 -0.34375,0.51563 -1,0.79688 -0.64063,0.28125 -1.45313,0.28125 -1.34375,0 -2.04687,-0.5625 -0.70313,-0.5625 -0.90625,-1.65625 z m 6.66406,0 1.15625,-0.1875 q 0.10937,0.70312 0.54687,1.07812 0.45313,0.35938 1.25,0.35938 0.8125,0 1.20313,-0.32813 0.39062,-0.32812 0.39062,-0.76562 0,-0.39063 -0.35937,-0.625 -0.23438,-0.15625 -1.1875,-0.39063 -1.29688,-0.32812 -1.79688,-0.5625 -0.48437,-0.25 -0.75,-0.65625 -0.25,-0.42187 -0.25,-0.9375 0,-0.45312 0.20313,-0.84375 0.21875,-0.40625 0.57812,-0.67187 0.28125,-0.1875 0.75,-0.32813 0.46875,-0.14062 1.01563,-0.14062 0.8125,0 1.42187,0.23437 0.60938,0.23438 0.90625,0.64063 0.29688,0.39062 0.40625,1.0625 l -1.14062,0.15625 q -0.0781,-0.53125 -0.45313,-0.82813 -0.375,-0.3125 -1.0625,-0.3125 -0.8125,0 -1.15625,0.26563 -0.34375,0.26562 -0.34375,0.625 0,0.23437 0.14063,0.42187 0.15625,0.1875 0.45312,0.3125 0.17188,0.0625 1.03125,0.29688 1.25,0.32812 1.73438,0.54687 0.5,0.20313 0.78125,0.60938 0.28125,0.40625 0.28125,1 0,0.59375 -0.34375,1.10937 -0.34375,0.51563 -1,0.79688 -0.64063,0.28125 -1.45313,0.28125 -1.34375,0 -2.04687,-0.5625 -0.70313,-0.5625 -0.90625,-1.65625 z m 11.86719,-0.15625 1.20312,0.14062 q -0.28125,1.0625 -1.0625,1.65625 -0.76562,0.57813 -1.96875,0.57813 -1.51562,0 -2.40625,-0.9375 -0.89062,-0.9375 -0.89062,-2.60938 0,-1.75 0.89062,-2.70312 0.90625,-0.96875 2.34375,-0.96875 1.39063,0 2.26563,0.9375 0.875,0.9375 0.875,2.65625 0,0.10937 0,0.3125 h -5.15625 q 0.0625,1.14062 0.64062,1.75 0.57813,0.59375 1.4375,0.59375 0.65625,0 1.10938,-0.32813 0.45312,-0.34375 0.71875,-1.07812 z m -3.84375,-1.90625 h 3.85937 q -0.0781,-0.85938 -0.4375,-1.29688 -0.5625,-0.6875 -1.45312,-0.6875 -0.8125,0 -1.35938,0.54688 -0.54687,0.53125 -0.60937,1.4375 z m 11.00622,4.125 v -0.875 q -0.65625,1.03125 -1.9375,1.03125 -0.8125,0 -1.51562,-0.45313 -0.6875,-0.45312 -1.07813,-1.26562 -0.375,-0.82813 -0.375,-1.89063 0,-1.03125 0.34375,-1.875 0.34375,-0.84375 1.03125,-1.28125 0.70313,-0.45312 1.54688,-0.45312 0.625,0 1.10937,0.26562 0.5,0.25 0.79688,0.67188 v -3.42188 h 1.17187 v 9.54688 z m -3.70312,-3.45313 q 0,1.32813 0.5625,1.98438 0.5625,0.65625 1.32812,0.65625 0.76563,0 1.29688,-0.625 0.53125,-0.625 0.53125,-1.90625 0,-1.42188 -0.54688,-2.07813 -0.54687,-0.67187 -1.34375,-0.67187 -0.78125,0 -1.3125,0.64062 -0.51562,0.625 -0.51562,2 z"
       id="path3784"
       inkscape:connector-curvature="0"
       style="fill:#000000;fill-rule:nonzero" />
    <path
       d="m 267.428,277.3794 0.28125,-1.375 h 0.92187 l 0.21875,-1.10938 2.14063,-1.29687 -0.5,2.40625 h 1.14062 l -0.28125,1.375 h -1.14062 l -0.60938,2.90625 q -0.17187,0.78125 -0.17187,0.89062 0,0.21875 0.14062,0.34375 0.14063,0.10938 0.5,0.10938 0.125,0 0.60938,-0.0469 l -0.28125,1.39063 q -0.48438,0.0937 -1,0.0937 -0.98438,0 -1.4375,-0.375 -0.4375,-0.375 -0.4375,-1.0625 0,-0.3125 0.23437,-1.46875 l 0.57813,-2.78125 z m 8.78213,-1.375 -0.28125,1.35937 h -1.32812 l -1.15625,5.54688 h -1.85938 l 1.15625,-5.54688 h -1.04687 l 0.29687,-1.35937 h 1.03125 l 0.15625,-0.71875 q 0.1875,-0.875 0.34375,-1.17188 0.21875,-0.42187 0.65625,-0.65625 0.4375,-0.25 1.15625,-0.25 0.85938,0 1.8125,0.3125 l -0.375,1.32813 q -0.67187,-0.21875 -1.07812,-0.21875 -0.32813,0 -0.48438,0.20312 -0.0937,0.125 -0.21875,0.67188 l -0.0937,0.5 z m -0.60852,4.96875 1.8125,-0.28125 q 0.23438,0.57812 0.59375,0.8125 0.35938,0.23437 0.96875,0.23437 0.64063,0 1.03125,-0.28125 0.26563,-0.20312 0.26563,-0.48437 0,-0.1875 -0.14063,-0.32813 -0.14062,-0.15625 -0.78125,-0.35937 -1.6875,-0.5625 -2.09375,-0.875 -0.625,-0.51563 -0.625,-1.32813 0,-0.82812 0.60938,-1.42187 0.85937,-0.82813 2.53125,-0.82813 1.34375,0 2.01562,0.5 0.6875,0.48438 0.875,1.3125 l -1.73437,0.29688 q -0.125,-0.375 -0.4375,-0.5625 -0.42188,-0.25 -1,-0.25 -0.59375,0 -0.85938,0.20312 -0.25,0.1875 -0.25,0.4375 0,0.26563 0.26563,0.42188 0.15625,0.10937 1.04687,0.375 1.375,0.39062 1.82813,0.78125 0.65625,0.53125 0.65625,1.29687 0,0.98438 -0.82813,1.70313 -0.82812,0.71875 -2.32812,0.71875 -1.5,0 -2.32813,-0.54688 -0.8125,-0.54687 -1.09375,-1.54687 z m 8.11561,-3.59375 0.28125,-1.375 h 0.92187 l 0.21875,-1.10938 2.14063,-1.29687 -0.5,2.40625 h 1.14062 l -0.28125,1.375 h -1.14062 l -0.60938,2.90625 q -0.17187,0.78125 -0.17187,0.89062 0,0.21875 0.14062,0.34375 0.14063,0.10938 0.5,0.10938 0.125,0 0.60938,-0.0469 l -0.28125,1.39063 q -0.48438,0.0937 -1,0.0937 -0.98438,0 -1.4375,-0.375 -0.4375,-0.375 -0.4375,-1.0625 0,-0.3125 0.23437,-1.46875 l 0.57813,-2.78125 z m 6.61026,0.57812 -1.82813,-0.15625 q 0.3125,-0.92187 1.09375,-1.4375 0.78125,-0.53125 2.0625,-0.53125 1.32813,0 1.96875,0.54688 0.64063,0.53125 0.64063,1.3125 0,0.3125 -0.0625,0.67187 -0.0469,0.34375 -0.375,1.82813 -0.28125,1.23437 -0.28125,1.73437 0,0.4375 0.15625,0.98438 h -1.8125 q -0.10938,-0.375 -0.14063,-0.78125 -0.40625,0.45312 -0.9375,0.70312 -0.53125,0.23438 -1.07812,0.23438 -0.85938,0 -1.42188,-0.5625 -0.5625,-0.5625 -0.5625,-1.4375 0,-1 0.60938,-1.57813 0.625,-0.59375 2.20312,-0.71875 1.34375,-0.10937 1.78125,-0.26562 0.125,-0.39063 0.125,-0.625 0,-0.3125 -0.25,-0.5 -0.23437,-0.20313 -0.70312,-0.20313 -0.5,0 -0.79688,0.20313 -0.28125,0.20312 -0.39062,0.57812 z m 1.78125,1.73438 q -0.17188,0.0469 -0.45313,0.0781 -1.40625,0.17188 -1.84375,0.5 -0.29687,0.23438 -0.29687,0.625 0,0.32813 0.23437,0.5625 0.23438,0.21875 0.60938,0.21875 0.42187,0 0.79687,-0.20312 0.375,-0.20313 0.5625,-0.53125 0.1875,-0.32813 0.32813,-1 z m 3.45935,-2.3125 0.28125,-1.375 h 0.92187 l 0.21875,-1.10938 2.14063,-1.29687 -0.5,2.40625 h 1.14062 l -0.28125,1.375 h -1.14062 l -0.60938,2.90625 q -0.17187,0.78125 -0.17187,0.89062 0,0.21875 0.14062,0.34375 0.14063,0.10938 0.5,0.10938 0.125,0 0.60938,-0.0469 l -0.28125,1.39063 q -0.48438,0.0937 -1,0.0937 -0.98438,0 -1.4375,-0.375 -0.4375,-0.375 -0.4375,-1.0625 0,-0.3125 0.23437,-1.46875 l 0.57813,-2.78125 z m 10.70401,2.65625 h -4.6875 q 0,0.10937 0,0.17187 0,0.6875 0.39062,1.10938 0.39063,0.42187 0.95313,0.42187 0.9375,0 1.45312,-0.96875 l 1.67188,0.28125 q -0.48438,1.01563 -1.3125,1.51563 -0.8125,0.5 -1.82813,0.5 -1.39062,0 -2.26565,-0.875 -0.85938,-0.875 -0.85938,-2.32813 0,-1.42187 0.78125,-2.53125 1.07816,-1.5 3.06253,-1.5 1.26563,0 2.01563,0.79688 0.75,0.78125 0.75,2.1875 0,0.67187 -0.125,1.21875 z m -1.57813,-1.14063 q 0,-0.125 0,-0.1875 0,-0.76562 -0.34375,-1.14062 -0.34375,-0.39063 -0.92187,-0.39063 -0.57813,0 -1.04688,0.4375 -0.45312,0.42188 -0.60937,1.28125 z"
       id="path3786"
       inkscape:connector-curvature="0"
       style="fill:#000000;fill-rule:nonzero" />
    <path
       d="m 315.4813,282.91064 v -0.875 q -0.65625,1.03125 -1.9375,1.03125 -0.8125,0 -1.51563,-0.45313 -0.6875,-0.45312 -1.07812,-1.26562 -0.375,-0.82813 -0.375,-1.89063 0,-1.03125 0.34375,-1.875 0.34375,-0.84375 1.03125,-1.28125 0.70312,-0.45312 1.54687,-0.45312 0.625,0 1.10938,0.26562 0.5,0.25 0.79687,0.67188 v -3.42188 h 1.17188 v 9.54688 z m -3.70313,-3.45313 q 0,1.32813 0.5625,1.98438 0.5625,0.65625 1.32813,0.65625 0.76562,0 1.29687,-0.625 0.53125,-0.625 0.53125,-1.90625 0,-1.42188 -0.54687,-2.07813 -0.54688,-0.67187 -1.34375,-0.67187 -0.78125,0 -1.3125,0.64062 -0.51563,0.625 -0.51563,2 z m 11.14686,2.59375 q -0.65625,0.5625 -1.26563,0.79688 -0.59375,0.21875 -1.28125,0.21875 -1.14062,0 -1.75,-0.54688 -0.60937,-0.5625 -0.60937,-1.4375 0,-0.5 0.21875,-0.92187 0.23437,-0.42188 0.60937,-0.67188 0.375,-0.25 0.84375,-0.39062 0.34375,-0.0781 1.04688,-0.17188 1.42187,-0.17187 2.09375,-0.40625 0,-0.23437 0,-0.29687 0,-0.71875 -0.32813,-1.01563 -0.45312,-0.39062 -1.34375,-0.39062 -0.8125,0 -1.21875,0.29687 -0.39062,0.28125 -0.57812,1.01563 l -1.14063,-0.15625 q 0.15625,-0.73438 0.51563,-1.1875 0.35937,-0.45313 1.03125,-0.6875 0.67187,-0.25 1.5625,-0.25 0.89062,0 1.4375,0.20312 0.5625,0.20313 0.8125,0.53125 0.26562,0.3125 0.375,0.79688 0.0469,0.29687 0.0469,1.07812 v 1.5625 q 0,1.625 0.0781,2.0625 0.0781,0.4375 0.29687,0.82813 h -1.21875 q -0.1875,-0.35938 -0.23437,-0.85938 z m -0.0937,-2.60937 q -0.64063,0.26562 -1.92188,0.4375 -0.71875,0.10937 -1.01562,0.25 -0.29688,0.125 -0.46875,0.375 -0.15625,0.25 -0.15625,0.54687 0,0.46875 0.34375,0.78125 0.35937,0.3125 1.04687,0.3125 0.67188,0 1.20313,-0.29687 0.53125,-0.29688 0.78125,-0.8125 0.1875,-0.39063 0.1875,-1.17188 z m 5.5531,2.42187 0.17187,1.03125 q -0.5,0.10938 -0.89062,0.10938 -0.64063,0 -1,-0.20313 -0.34375,-0.20312 -0.48438,-0.53125 -0.14062,-0.32812 -0.14062,-1.39062 v -3.96875 h -0.85938 v -0.90625 h 0.85938 v -1.71875 l 1.17187,-0.70313 v 2.42188 h 1.17188 v 0.90625 h -1.17188 v 4.04687 q 0,0.5 0.0469,0.64063 0.0625,0.14062 0.20312,0.23437 0.14063,0.0781 0.40625,0.0781 0.20313,0 0.51563,-0.0469 z m 5.65612,0.1875 q -0.65625,0.5625 -1.26562,0.79688 -0.59375,0.21875 -1.28125,0.21875 -1.14063,0 -1.75,-0.54688 -0.60938,-0.5625 -0.60938,-1.4375 0,-0.5 0.21875,-0.92187 0.23438,-0.42188 0.60938,-0.67188 0.375,-0.25 0.84375,-0.39062 0.34375,-0.0781 1.04687,-0.17188 1.42188,-0.17187 2.09375,-0.40625 0,-0.23437 0,-0.29687 0,-0.71875 -0.32812,-1.01563 -0.45313,-0.39062 -1.34375,-0.39062 -0.8125,0 -1.21875,0.29687 -0.39063,0.28125 -0.57813,1.01563 l -1.14062,-0.15625 q 0.15625,-0.73438 0.51562,-1.1875 0.35938,-0.45313 1.03125,-0.6875 0.67188,-0.25 1.5625,-0.25 0.89063,0 1.4375,0.20312 0.5625,0.20313 0.8125,0.53125 0.26563,0.3125 0.375,0.79688 0.0469,0.29687 0.0469,1.07812 v 1.5625 q 0,1.625 0.0781,2.0625 0.0781,0.4375 0.29688,0.82813 h -1.21875 q -0.1875,-0.35938 -0.23438,-0.85938 z m -0.0937,-2.60937 q -0.64062,0.26562 -1.92187,0.4375 -0.71875,0.10937 -1.01563,0.25 -0.29687,0.125 -0.46875,0.375 -0.15625,0.25 -0.15625,0.54687 0,0.46875 0.34375,0.78125 0.35938,0.3125 1.04688,0.3125 0.67187,0 1.20312,-0.29687 0.53125,-0.29688 0.78125,-0.8125 0.1875,-0.39063 0.1875,-1.17188 z"
       id="path3788"
       inkscape:connector-curvature="0"
       style="fill:#000000;fill-rule:nonzero" />
    <path
       d="m 147.12181,270.11066 h 89.6693"
       id="path3790"
       inkscape:connector-curvature="0"
       style="fill:#000000;fill-opacity:0;fill-rule:evenodd" />
    <path
       d="m 147.12183,270.11066 h 83.66928"
       id="path3792"
       inkscape:connector-curvature="0"
       style="fill-rule:evenodd;stroke:#595959;stroke-width:1;stroke-linecap:butt;stroke-linejoin:round" />
    <path
       d="m 230.7911,271.7624 4.5381,-1.65173 -4.5381,-1.65174 z"
       id="path3794"
       inkscape:connector-curvature="0"
       style="fill:#595959;fill-rule:evenodd;stroke:#595959;stroke-width:1;stroke-linecap:butt" />
    <path
       d="m 160.89795,251.3227 h 63.96849 v 24.94488 h -63.96849 z"
       id="path3796"
       inkscape:connector-curvature="0"
       style="fill:#000000;fill-opacity:0;fill-rule:evenodd" />
    <path
       d="m 164.8667,261.56268 h -0.9375 v -5.96875 q -0.34375,0.32812 -0.89063,0.65625 -0.54687,0.3125 -0.98437,0.46875 v -0.90625 q 0.79687,-0.35938 1.375,-0.89063 0.59375,-0.53125 0.82812,-1.01562 h 0.60938 z m 2.9265,0 v -1.0625 h 1.0625 v 1.0625 z m 9.26504,-2.03125 0.92188,0.125 q -0.15625,0.95312 -0.78125,1.5 -0.625,0.53125 -1.53125,0.53125 -1.125,0 -1.8125,-0.73438 -0.6875,-0.75 -0.6875,-2.125 0,-0.90625 0.29687,-1.57812 0.29688,-0.67188 0.89063,-1 0.60937,-0.34375 1.32812,-0.34375 0.89063,0 1.46875,0.46875 0.57813,0.45312 0.73438,1.28125 l -0.90625,0.14062 q -0.14063,-0.54687 -0.46875,-0.82812 -0.32813,-0.28125 -0.79688,-0.28125 -0.70312,0 -1.15625,0.51562 -0.4375,0.5 -0.4375,1.59375 0,1.10938 0.42188,1.625 0.4375,0.5 1.125,0.5 0.54687,0 0.90625,-0.34375 0.375,-0.34375 0.48437,-1.04687 z m 1.375,-0.73438 q 0,-1.53125 0.84375,-2.26562 0.71875,-0.625 1.73438,-0.625 1.14062,0 1.85937,0.75 0.73438,0.75 0.73438,2.0625 0,1.0625 -0.32813,1.6875 -0.3125,0.60937 -0.92187,0.95312 -0.60938,0.32813 -1.34375,0.32813 -1.15625,0 -1.875,-0.73438 -0.70313,-0.75 -0.70313,-2.15625 z m 0.95313,0 q 0,1.0625 0.46875,1.59375 0.46875,0.53125 1.15625,0.53125 0.70312,0 1.15625,-0.53125 0.46875,-0.53125 0.46875,-1.625 0,-1.01562 -0.46875,-1.54687 -0.45313,-0.53125 -1.15625,-0.53125 -0.6875,0 -1.15625,0.53125 -0.46875,0.51562 -0.46875,1.57812 z m 5.31712,2.76563 v -5.53125 h 0.84375 v 0.78125 q 0.25,-0.40625 0.6875,-0.65625 0.4375,-0.25 0.98438,-0.25 0.60937,0 1,0.26562 0.39062,0.25 0.5625,0.70313 0.65625,-0.96875 1.70312,-0.96875 0.82813,0 1.26563,0.46875 0.4375,0.45312 0.4375,1.39062 v 3.79688 h -0.92188 v -3.48438 q 0,-0.5625 -0.0937,-0.79687 -0.0937,-0.25 -0.34375,-0.40625 -0.23437,-0.15625 -0.54687,-0.15625 -0.59375,0 -0.98438,0.39062 -0.375,0.39063 -0.375,1.25 v 3.20313 h -0.9375 v -3.59375 q 0,-0.625 -0.23437,-0.9375 -0.21875,-0.3125 -0.75,-0.3125 -0.39063,0 -0.73438,0.21875 -0.32812,0.20312 -0.48437,0.60937 -0.14063,0.39063 -0.14063,1.15625 v 2.85938 z m 8.87674,2.125 v -7.65625 h 0.85938 v 0.71875 q 0.29687,-0.42188 0.67187,-0.625 0.39063,-0.21875 0.92188,-0.21875 0.70312,0 1.25,0.375 0.54687,0.35937 0.8125,1.03125 0.28125,0.65625 0.28125,1.45312 0,0.84375 -0.3125,1.53125 -0.29688,0.67188 -0.875,1.03125 -0.57813,0.35938 -1.21875,0.35938 -0.46875,0 -0.84375,-0.1875 -0.375,-0.20313 -0.60938,-0.51563 v 2.70313 z m 0.84375,-4.85938 q 0,1.0625 0.4375,1.57813 0.4375,0.51562 1.04688,0.51562 0.625,0 1.0625,-0.53125 0.45312,-0.53125 0.45312,-1.64062 0,-1.04688 -0.4375,-1.57813 -0.4375,-0.53125 -1.04687,-0.53125 -0.59375,0 -1.0625,0.5625 -0.45313,0.5625 -0.45313,1.625 z m 5.06712,2.73438 v -5.53125 h 0.84375 v 0.84375 q 0.32813,-0.59375 0.59375,-0.78125 0.28125,-0.1875 0.60938,-0.1875 0.46875,0 0.95312,0.3125 l -0.3125,0.85937 q -0.34375,-0.20312 -0.6875,-0.20312 -0.3125,0 -0.5625,0.1875 -0.23437,0.1875 -0.34375,0.51562 -0.15625,0.5 -0.15625,1.09375 v 2.89063 z m 7.34549,-1.78125 0.96875,0.125 q -0.23437,0.84375 -0.85937,1.3125 -0.60938,0.46875 -1.57813,0.46875 -1.20312,0 -1.92187,-0.75 -0.70313,-0.75 -0.70313,-2.09375 0,-1.39063 0.71875,-2.15625 0.71875,-0.78125 1.85938,-0.78125 1.10937,0 1.8125,0.76562 0.70312,0.75 0.70312,2.125 0,0.0781 0,0.23438 h -4.125 q 0.0469,0.92187 0.51563,1.40625 0.46875,0.48437 1.15625,0.48437 0.51562,0 0.875,-0.26562 0.35937,-0.28125 0.57812,-0.875 z m -3.07812,-1.51563 h 3.09375 q -0.0625,-0.6875 -0.35938,-1.04687 -0.45312,-0.53125 -1.15625,-0.53125 -0.64062,0 -1.09375,0.4375 -0.4375,0.42187 -0.48437,1.14062 z m 4.84837,1.64063 0.92188,-0.14063 q 0.0781,0.5625 0.4375,0.85938 0.35937,0.29687 1,0.29687 0.64062,0 0.95312,-0.26562 0.3125,-0.26563 0.3125,-0.625 0,-0.3125 -0.28125,-0.5 -0.1875,-0.125 -0.95312,-0.3125 -1.03125,-0.26563 -1.4375,-0.45313 -0.39063,-0.1875 -0.59375,-0.51562 -0.20313,-0.34375 -0.20313,-0.75 0,-0.35938 0.17188,-0.67188 0.17187,-0.32812 0.45312,-0.53125 0.21875,-0.15625 0.59375,-0.26562 0.39063,-0.125 0.8125,-0.125 0.65625,0 1.14063,0.1875 0.5,0.1875 0.73437,0.51562 0.23438,0.3125 0.3125,0.85938 l -0.90625,0.125 q -0.0625,-0.4375 -0.375,-0.67188 -0.29687,-0.23437 -0.82812,-0.23437 -0.65625,0 -0.9375,0.21875 -0.26563,0.20312 -0.26563,0.48437 0,0.1875 0.10938,0.32813 0.125,0.15625 0.35937,0.25 0.14063,0.0625 0.82813,0.25 1,0.26562 1.39062,0.4375 0.39063,0.15625 0.60938,0.48437 0.23437,0.3125 0.23437,0.79688 0,0.46875 -0.28125,0.89062 -0.26562,0.40625 -0.78125,0.64063 -0.51562,0.21875 -1.17187,0.21875 -1.07813,0 -1.64063,-0.4375 -0.5625,-0.45313 -0.71875,-1.34375 z m 5.32813,0 0.92187,-0.14063 q 0.0781,0.5625 0.4375,0.85938 0.35938,0.29687 1,0.29687 0.64063,0 0.95313,-0.26562 0.3125,-0.26563 0.3125,-0.625 0,-0.3125 -0.28125,-0.5 -0.1875,-0.125 -0.95313,-0.3125 -1.03125,-0.26563 -1.4375,-0.45313 -0.39062,-0.1875 -0.59375,-0.51562 -0.20312,-0.34375 -0.20312,-0.75 0,-0.35938 0.17187,-0.67188 0.17188,-0.32812 0.45313,-0.53125 0.21875,-0.15625 0.59375,-0.26562 0.39062,-0.125 0.8125,-0.125 0.65625,0 1.14062,0.1875 0.5,0.1875 0.73438,0.51562 0.23437,0.3125 0.3125,0.85938 l -0.90625,0.125 q -0.0625,-0.4375 -0.375,-0.67188 -0.29688,-0.23437 -0.82813,-0.23437 -0.65625,0 -0.9375,0.21875 -0.26562,0.20312 -0.26562,0.48437 0,0.1875 0.10937,0.32813 0.125,0.15625 0.35938,0.25 0.14062,0.0625 0.82812,0.25 1,0.26562 1.39063,0.4375 0.39062,0.15625 0.60937,0.48437 0.23438,0.3125 0.23438,0.79688 0,0.46875 -0.28125,0.89062 -0.26563,0.40625 -0.78125,0.64063 -0.51563,0.21875 -1.17188,0.21875 -1.07812,0 -1.64062,-0.4375 -0.5625,-0.45313 -0.71875,-1.34375 z"
       id="path3798"
       inkscape:connector-curvature="0"
       style="fill:#000000;fill-rule:nonzero" />
    <path
       d="m 454.4184,251.32326 h 128.91339 v 37.57481 H 454.4184 Z"
       id="path3800"
       inkscape:connector-curvature="0"
       style="fill:#ffe599;fill-rule:evenodd" />
    <path
       d="m 454.4184,251.32326 h 128.91339 v 37.57481 H 454.4184 Z"
       id="path3802"
       inkscape:connector-curvature="0"
       style="fill-rule:evenodd;stroke:#595959;stroke-width:1;stroke-linecap:butt;stroke-linejoin:round" />
    <path
       d="m 475.0957,274.91064 v -9.54688 h 6.90625 v 1.125 h -5.64062 v 2.92188 h 5.28125 v 1.125 h -5.28125 v 3.25 h 5.85937 v 1.125 z m 8.71787,0 v -6.90625 h 1.0625 v 0.98437 q 0.75,-1.14062 2.1875,-1.14062 0.625,0 1.15625,0.21875 0.53125,0.21875 0.78125,0.59375 0.26562,0.35937 0.375,0.85937 0.0625,0.32813 0.0625,1.14063 v 4.25 h -1.17188 v -4.20313 q 0,-0.71875 -0.14062,-1.0625 -0.14063,-0.35937 -0.48438,-0.5625 -0.34375,-0.21875 -0.8125,-0.21875 -0.75,0 -1.29687,0.46875 -0.54688,0.46875 -0.54688,1.79688 v 3.78125 z m 11.9281,-2.53125 1.15625,0.15625 q -0.1875,1.1875 -0.96875,1.85937 -0.78125,0.67188 -1.92188,0.67188 -1.40625,0 -2.28125,-0.92188 -0.85937,-0.9375 -0.85937,-2.65625 0,-1.125 0.375,-1.96875 0.375,-0.84375 1.125,-1.25 0.76562,-0.42187 1.65625,-0.42187 1.125,0 1.84375,0.57812 0.71875,0.5625 0.92187,1.60938 l -1.14062,0.17187 q -0.17188,-0.70312 -0.59375,-1.04687 -0.40625,-0.35938 -0.98438,-0.35938 -0.89062,0 -1.45312,0.64063 -0.54688,0.64062 -0.54688,2 0,1.40625 0.53125,2.03125 0.54688,0.625 1.40625,0.625 0.6875,0 1.14063,-0.42188 0.46875,-0.42187 0.59375,-1.29687 z m 2.13281,2.53125 v -6.90625 h 1.0625 v 1.04687 q 0.40625,-0.73437 0.73437,-0.96875 0.34375,-0.23437 0.76563,-0.23437 0.59375,0 1.20312,0.375 l -0.40625,1.07812 q -0.4375,-0.25 -0.85937,-0.25 -0.39063,0 -0.70313,0.23438 -0.29687,0.23437 -0.42187,0.64062 -0.20313,0.625 -0.20313,1.35938 v 3.625 z m 4.40713,2.65625 -0.125,-1.09375 q 0.375,0.10937 0.65625,0.10937 0.39063,0 0.625,-0.14062 0.23438,-0.125 0.39063,-0.35938 0.10937,-0.17187 0.35937,-0.875 0.0312,-0.0937 0.10938,-0.28125 l -2.625,-6.92187 h 1.26562 l 1.4375,4 q 0.28125,0.76562 0.5,1.59375 0.20313,-0.79688 0.46875,-1.57813 l 1.48438,-4.01562 h 1.17187 l -2.625,7.01562 q -0.42187,1.14063 -0.65625,1.57813 -0.3125,0.57812 -0.71875,0.84375 -0.40625,0.28125 -0.96875,0.28125 -0.32812,0 -0.75,-0.15625 z m 6.71094,0 v -9.5625 h 1.07813 v 0.89062 q 0.375,-0.53125 0.84375,-0.78125 0.48437,-0.26562 1.15625,-0.26562 0.875,0 1.54687,0.45312 0.6875,0.45313 1.03125,1.28125 0.34375,0.82813 0.34375,1.82813 0,1.04687 -0.375,1.90625 -0.375,0.84375 -1.10937,1.29687 -0.71875,0.45313 -1.53125,0.45313 -0.57813,0 -1.04688,-0.25 -0.46875,-0.25 -0.76562,-0.625 v 3.375 z m 1.0625,-6.07813 q 0,1.34375 0.53125,1.98438 0.54688,0.625 1.3125,0.625 0.78125,0 1.34375,-0.65625 0.5625,-0.65625 0.5625,-2.04688 0,-1.3125 -0.54687,-1.96875 -0.54688,-0.67187 -1.29688,-0.67187 -0.75,0 -1.32812,0.70312 -0.57813,0.70313 -0.57813,2.03125 z m 8.91248,2.375 0.17187,1.03125 q -0.5,0.10938 -0.89062,0.10938 -0.64063,0 -1,-0.20313 -0.34375,-0.20312 -0.48438,-0.53125 -0.14062,-0.32812 -0.14062,-1.39062 v -3.96875 h -0.85938 v -0.90625 h 0.85938 v -1.71875 l 1.17187,-0.70313 v 2.42188 h 1.17188 v 0.90625 h -1.17188 v 4.04687 q 0,0.5 0.0469,0.64063 0.0625,0.14062 0.20312,0.23437 0.14063,0.0781 0.40625,0.0781 0.20313,0 0.51563,-0.0469 z m 5.87487,-1.17187 1.20313,0.14062 q -0.28125,1.0625 -1.0625,1.65625 -0.76563,0.57813 -1.96875,0.57813 -1.51563,0 -2.40625,-0.9375 -0.89063,-0.9375 -0.89063,-2.60938 0,-1.75 0.89063,-2.70312 0.90625,-0.96875 2.34375,-0.96875 1.39062,0 2.26562,0.9375 0.875,0.9375 0.875,2.65625 0,0.10937 0,0.3125 h -5.15625 q 0.0625,1.14062 0.64063,1.75 0.57812,0.59375 1.4375,0.59375 0.65625,0 1.10937,-0.32813 0.45313,-0.34375 0.71875,-1.07812 z m -3.84375,-1.90625 h 3.85938 q -0.0781,-0.85938 -0.4375,-1.29688 -0.5625,-0.6875 -1.45313,-0.6875 -0.8125,0 -1.35937,0.54688 -0.54688,0.53125 -0.60938,1.4375 z m 11.00623,4.125 v -0.875 q -0.65625,1.03125 -1.9375,1.03125 -0.8125,0 -1.51562,-0.45313 -0.6875,-0.45312 -1.07813,-1.26562 -0.375,-0.82813 -0.375,-1.89063 0,-1.03125 0.34375,-1.875 0.34375,-0.84375 1.03125,-1.28125 0.70313,-0.45312 1.54688,-0.45312 0.625,0 1.10937,0.26562 0.5,0.25 0.79688,0.67188 v -3.42188 h 1.17187 v 9.54688 z m -3.70312,-3.45313 q 0,1.32813 0.5625,1.98438 0.5625,0.65625 1.32812,0.65625 0.76563,0 1.29688,-0.625 0.53125,-0.625 0.53125,-1.90625 0,-1.42188 -0.54688,-2.07813 -0.54687,-0.67187 -1.34375,-0.67187 -0.78125,0 -1.3125,0.64062 -0.51562,0.625 -0.51562,2 z m 14.81854,3.45313 v -0.875 q -0.65625,1.03125 -1.9375,1.03125 -0.8125,0 -1.51563,-0.45313 -0.6875,-0.45312 -1.07812,-1.26562 -0.375,-0.82813 -0.375,-1.89063 0,-1.03125 0.34375,-1.875 0.34375,-0.84375 1.03125,-1.28125 0.70312,-0.45312 1.54687,-0.45312 0.625,0 1.10938,0.26562 0.5,0.25 0.79687,0.67188 v -3.42188 h 1.17188 v 9.54688 z m -3.70313,-3.45313 q 0,1.32813 0.5625,1.98438 0.5625,0.65625 1.32813,0.65625 0.76562,0 1.29687,-0.625 0.53125,-0.625 0.53125,-1.90625 0,-1.42188 -0.54687,-2.07813 -0.54688,-0.67187 -1.34375,-0.67187 -0.78125,0 -1.3125,0.64062 -0.51563,0.625 -0.51563,2 z m 11.14685,2.59375 q -0.65625,0.5625 -1.26562,0.79688 -0.59375,0.21875 -1.28125,0.21875 -1.14063,0 -1.75,-0.54688 -0.60938,-0.5625 -0.60938,-1.4375 0,-0.5 0.21875,-0.92187 0.23438,-0.42188 0.60938,-0.67188 0.375,-0.25 0.84375,-0.39062 0.34375,-0.0781 1.04687,-0.17188 1.42188,-0.17187 2.09375,-0.40625 0,-0.23437 0,-0.29687 0,-0.71875 -0.32812,-1.01563 -0.45313,-0.39062 -1.34375,-0.39062 -0.8125,0 -1.21875,0.29687 -0.39063,0.28125 -0.57813,1.01563 l -1.14062,-0.15625 q 0.15625,-0.73438 0.51562,-1.1875 0.35938,-0.45313 1.03125,-0.6875 0.67188,-0.25 1.5625,-0.25 0.89063,0 1.4375,0.20312 0.5625,0.20313 0.8125,0.53125 0.26563,0.3125 0.375,0.79688 0.0469,0.29687 0.0469,1.07812 v 1.5625 q 0,1.625 0.0781,2.0625 0.0781,0.4375 0.29688,0.82813 h -1.21875 q -0.1875,-0.35938 -0.23438,-0.85938 z m -0.0937,-2.60937 q -0.64062,0.26562 -1.92187,0.4375 -0.71875,0.10937 -1.01563,0.25 -0.29687,0.125 -0.46875,0.375 -0.15625,0.25 -0.15625,0.54687 0,0.46875 0.34375,0.78125 0.35938,0.3125 1.04688,0.3125 0.67187,0 1.20312,-0.29687 0.53125,-0.29688 0.78125,-0.8125 0.1875,-0.39063 0.1875,-1.17188 z m 5.55311,2.42187 0.17187,1.03125 q -0.5,0.10938 -0.89062,0.10938 -0.64063,0 -1,-0.20313 -0.34375,-0.20312 -0.48438,-0.53125 -0.14062,-0.32812 -0.14062,-1.39062 v -3.96875 h -0.85938 v -0.90625 h 0.85938 v -1.71875 l 1.17187,-0.70313 v 2.42188 h 1.17188 v 0.90625 h -1.17188 v 4.04687 q 0,0.5 0.0469,0.64063 0.0625,0.14062 0.20312,0.23437 0.14063,0.0781 0.40625,0.0781 0.20313,0 0.51563,-0.0469 z m 5.65612,0.1875 q -0.65625,0.5625 -1.26562,0.79688 -0.59375,0.21875 -1.28125,0.21875 -1.14063,0 -1.75,-0.54688 -0.60938,-0.5625 -0.60938,-1.4375 0,-0.5 0.21875,-0.92187 0.23438,-0.42188 0.60938,-0.67188 0.375,-0.25 0.84375,-0.39062 0.34375,-0.0781 1.04687,-0.17188 1.42188,-0.17187 2.09375,-0.40625 0,-0.23437 0,-0.29687 0,-0.71875 -0.32812,-1.01563 -0.45313,-0.39062 -1.34375,-0.39062 -0.8125,0 -1.21875,0.29687 -0.39063,0.28125 -0.57813,1.01563 l -1.14062,-0.15625 q 0.15625,-0.73438 0.51562,-1.1875 0.35938,-0.45313 1.03125,-0.6875 0.67188,-0.25 1.5625,-0.25 0.89063,0 1.4375,0.20312 0.5625,0.20313 0.8125,0.53125 0.26563,0.3125 0.375,0.79688 0.0469,0.29687 0.0469,1.07812 v 1.5625 q 0,1.625 0.0781,2.0625 0.0781,0.4375 0.29688,0.82813 h -1.21875 q -0.1875,-0.35938 -0.23438,-0.85938 z m -0.0937,-2.60937 q -0.64062,0.26562 -1.92187,0.4375 -0.71875,0.10937 -1.01563,0.25 -0.29687,0.125 -0.46875,0.375 -0.15625,0.25 -0.15625,0.54687 0,0.46875 0.34375,0.78125 0.35938,0.3125 1.04688,0.3125 0.67187,0 1.20312,-0.29687 0.53125,-0.29688 0.78125,-0.8125 0.1875,-0.39063 0.1875,-1.17188 z"
       id="path3804"
       inkscape:connector-curvature="0"
       style="fill:#000000;fill-rule:nonzero" />
    <path
       d="m 365.70187,270.11066 h 88.7244"
       id="path3806"
       inkscape:connector-curvature="0"
       style="fill:#000000;fill-opacity:0;fill-rule:evenodd" />
    <path
       d="m 365.70184,270.11066 h 82.72443"
       id="path3808"
       inkscape:connector-curvature="0"
       style="fill-rule:evenodd;stroke:#595959;stroke-width:1;stroke-linecap:butt;stroke-linejoin:round" />
    <path
       d="m 448.42627,271.7624 4.53809,-1.65173 -4.53809,-1.65174 z"
       id="path3810"
       inkscape:connector-curvature="0"
       style="fill:#595959;fill-rule:evenodd;stroke:#595959;stroke-width:1;stroke-linecap:butt" />
    <path
       d="m 378.0751,251.3227 h 63.96851 v 24.94488 H 378.0751 Z"
       id="path3812"
       inkscape:connector-curvature="0"
       style="fill:#000000;fill-opacity:0;fill-rule:evenodd" />
    <path
       d="m 383.43448,260.65643 v 0.90625 h -5.03125 q -0.0156,-0.34375 0.10937,-0.65625 0.1875,-0.51563 0.60938,-1.01563 0.42187,-0.5 1.23437,-1.14062 1.23438,-1.03125 1.67188,-1.625 0.4375,-0.59375 0.4375,-1.125 0,-0.5625 -0.40625,-0.9375 -0.39063,-0.39063 -1.03125,-0.39063 -0.67188,0 -1.07813,0.40625 -0.40625,0.40625 -0.40625,1.125 l -0.96875,-0.0937 q 0.0937,-1.07812 0.73438,-1.64062 0.65625,-0.5625 1.73437,-0.5625 1.10938,0 1.75,0.60937 0.64063,0.60938 0.64063,1.5 0,0.46875 -0.1875,0.90625 -0.1875,0.4375 -0.625,0.9375 -0.4375,0.48438 -1.45313,1.32813 -0.82812,0.71875 -1.07812,0.96875 -0.23438,0.25 -0.39063,0.5 z m 1.53589,0.90625 v -1.0625 h 1.0625 v 1.0625 z m 9.43692,-1.78125 0.96875,0.125 q -0.23438,0.84375 -0.85938,1.3125 -0.60937,0.46875 -1.57812,0.46875 -1.20313,0 -1.92188,-0.75 -0.70312,-0.75 -0.70312,-2.09375 0,-1.39063 0.71875,-2.15625 0.71875,-0.78125 1.85937,-0.78125 1.10938,0 1.8125,0.76562 0.70313,0.75 0.70313,2.125 0,0.0781 0,0.23438 h -4.125 q 0.0469,0.92187 0.51562,1.40625 0.46875,0.48437 1.15625,0.48437 0.51563,0 0.875,-0.26562 0.35938,-0.28125 0.57813,-0.875 z m -3.07813,-1.51563 h 3.09375 q -0.0625,-0.6875 -0.35937,-1.04687 -0.45313,-0.53125 -1.15625,-0.53125 -0.64063,0 -1.09375,0.4375 -0.4375,0.42187 -0.48438,1.14062 z m 5.22336,3.29688 v -5.53125 h 0.84375 v 0.79687 q 0.60938,-0.92187 1.75,-0.92187 0.5,0 0.92188,0.1875 0.42187,0.17187 0.625,0.46875 0.21875,0.29687 0.29687,0.6875 0.0469,0.26562 0.0469,0.92187 v 3.39063 h -0.9375 v -3.35938 q 0,-0.57812 -0.10938,-0.85937 -0.10937,-0.28125 -0.39062,-0.45313 -0.26563,-0.17187 -0.64063,-0.17187 -0.59375,0 -1.03125,0.39062 -0.4375,0.375 -0.4375,1.4375 v 3.01563 z m 9.53589,-2.03125 0.92188,0.125 q -0.15625,0.95312 -0.78125,1.5 -0.625,0.53125 -1.53125,0.53125 -1.125,0 -1.8125,-0.73438 -0.6875,-0.75 -0.6875,-2.125 0,-0.90625 0.29687,-1.57812 0.29688,-0.67188 0.89063,-1 0.60937,-0.34375 1.32812,-0.34375 0.89063,0 1.46875,0.46875 0.57813,0.45312 0.73438,1.28125 l -0.90625,0.14062 q -0.14063,-0.54687 -0.46875,-0.82812 -0.32813,-0.28125 -0.79688,-0.28125 -0.70312,0 -1.15625,0.51562 -0.4375,0.5 -0.4375,1.59375 0,1.10938 0.42188,1.625 0.4375,0.5 1.125,0.5 0.54687,0 0.90625,-0.34375 0.375,-0.34375 0.48437,-1.04687 z m 1.70313,2.03125 v -5.53125 h 0.84375 v 0.84375 q 0.32812,-0.59375 0.59375,-0.78125 0.28125,-0.1875 0.60937,-0.1875 0.46875,0 0.95313,0.3125 l -0.3125,0.85937 q -0.34375,-0.20312 -0.6875,-0.20312 -0.3125,0 -0.5625,0.1875 -0.23438,0.1875 -0.34375,0.51562 -0.15625,0.5 -0.15625,1.09375 v 2.89063 z m 3.51736,2.125 -0.0937,-0.875 q 0.29688,0.0781 0.53125,0.0781 0.3125,0 0.5,-0.10937 0.1875,-0.0937 0.3125,-0.28125 0.0781,-0.14063 0.28125,-0.70313 0.0312,-0.0781 0.0781,-0.21875 l -2.09375,-5.54687 h 1.01562 l 1.14063,3.20312 q 0.23437,0.60938 0.40625,1.28125 0.15625,-0.64062 0.375,-1.26562 l 1.1875,-3.21875 h 0.9375 l -2.10938,5.625 q -0.32812,0.90625 -0.51562,1.25 -0.25,0.46875 -0.57813,0.6875 -0.3125,0.21875 -0.76562,0.21875 -0.26563,0 -0.60938,-0.125 z m 5.375,0 v -7.65625 h 0.85938 v 0.71875 q 0.29687,-0.42188 0.67187,-0.625 0.39063,-0.21875 0.92188,-0.21875 0.70312,0 1.25,0.375 0.54687,0.35937 0.8125,1.03125 0.28125,0.65625 0.28125,1.45312 0,0.84375 -0.3125,1.53125 -0.29688,0.67188 -0.875,1.03125 -0.57813,0.35938 -1.21875,0.35938 -0.46875,0 -0.84375,-0.1875 -0.375,-0.20313 -0.60938,-0.51563 v 2.70313 z m 0.84375,-4.85938 q 0,1.0625 0.4375,1.57813 0.4375,0.51562 1.04688,0.51562 0.625,0 1.0625,-0.53125 0.45312,-0.53125 0.45312,-1.64062 0,-1.04688 -0.4375,-1.57813 -0.4375,-0.53125 -1.04687,-0.53125 -0.59375,0 -1.0625,0.5625 -0.45313,0.5625 -0.45313,1.625 z m 7.12961,1.89063 0.125,0.82812 q -0.39063,0.0937 -0.70313,0.0937 -0.5,0 -0.78125,-0.15625 -0.28125,-0.17187 -0.40625,-0.4375 -0.10937,-0.26562 -0.10937,-1.10937 v -3.17188 h -0.6875 v -0.73437 h 0.6875 V 254.672 l 0.9375,-0.5625 v 1.92188 h 0.9375 v 0.73437 h -0.9375 v 3.23438 q 0,0.39062 0.0469,0.51562 0.0469,0.10938 0.15625,0.1875 0.10938,0.0625 0.32813,0.0625 0.15625,0 0.40625,-0.0469 z"
       id="path3814"
       inkscape:connector-curvature="0"
       style="fill:#000000;fill-rule:nonzero" />
    <path
       d="m 664.06146,251.32326 h 128.91339 v 37.57481 H 664.06146 Z"
       id="path3816"
       inkscape:connector-curvature="0"
       style="fill:#ffe599;fill-rule:evenodd" />
    <path
       d="m 664.06146,251.32326 h 128.91339 v 37.57481 H 664.06146 Z"
       id="path3818"
       inkscape:connector-curvature="0"
       style="fill-rule:evenodd;stroke:#595959;stroke-width:1;stroke-linecap:butt;stroke-linejoin:round" />
    <path
       d="m 678.72217,257.36377 h 3.82812 q 1.125,0 1.67188,0.0937 0.5625,0.0937 1,0.40625 0.4375,0.29687 0.73437,0.79687 0.29688,0.5 0.29688,1.10938 0,0.67187 -0.35938,1.23437 -0.35937,0.5625 -0.98437,0.84375 0.875,0.25 1.34375,0.85938 0.46875,0.60937 0.46875,1.4375 0,0.65625 -0.3125,1.26562 -0.29688,0.60938 -0.82813,0.98438 -0.51562,0.35937 -1.28125,0.45312 -0.48437,0.0469 -2.32812,0.0625 h -3.25 z m 1.9375,1.59375 v 2.20312 h 1.26562 q 1.125,0 1.39063,-0.0312 0.5,-0.0625 0.78125,-0.34375 0.28125,-0.28125 0.28125,-0.73437 0,-0.45313 -0.25,-0.71875 -0.23438,-0.28125 -0.71875,-0.34375 -0.28125,-0.0312 -1.64063,-0.0312 z m 0,3.79687 v 2.54688 h 1.78125 q 1.04687,0 1.3125,-0.0625 0.4375,-0.0781 0.70312,-0.375 0.26563,-0.29688 0.26563,-0.8125 0,-0.42188 -0.20313,-0.71875 -0.20312,-0.3125 -0.60937,-0.4375 -0.39063,-0.14063 -1.70313,-0.14063 z m 9.04706,-0.64062 -1.67188,-0.3125 q 0.28125,-1 0.96875,-1.46875 0.6875,-0.48438 2.03125,-0.48438 1.21875,0 1.8125,0.29688 0.60938,0.28125 0.84375,0.73437 0.25,0.4375 0.25,1.625 l -0.0156,2.14063 q 0,0.90625 0.0781,1.34375 0.0937,0.42187 0.34375,0.92187 h -1.8125 q -0.0781,-0.1875 -0.17187,-0.54687 -0.0469,-0.15625 -0.0781,-0.20313 -0.46875,0.45313 -1,0.6875 -0.53125,0.21875 -1.14062,0.21875 -1.0625,0 -1.6875,-0.57812 -0.60938,-0.57813 -0.60938,-1.46875 0,-0.57813 0.28125,-1.03125 0.28125,-0.46875 0.78125,-0.70313 0.51563,-0.25 1.46875,-0.4375 1.28125,-0.23437 1.76563,-0.45312 v -0.17188 q 0,-0.53125 -0.26563,-0.75 -0.25,-0.23437 -0.96875,-0.23437 -0.48437,0 -0.76562,0.20312 -0.26563,0.1875 -0.4375,0.67188 z m 2.4375,1.48437 q -0.34375,0.10938 -1.10938,0.28125 -0.76562,0.15625 -1,0.3125 -0.35937,0.25 -0.35937,0.64063 0,0.39062 0.28125,0.67187 0.29687,0.28125 0.73437,0.28125 0.5,0 0.95313,-0.32812 0.32812,-0.25 0.4375,-0.60938 0.0625,-0.23437 0.0625,-0.89062 z m 2.95935,1.34375 1.82812,-0.28125 q 0.125,0.53125 0.48438,0.8125 0.35937,0.26563 1,0.26563 0.70312,0 1.0625,-0.25 0.25,-0.1875 0.25,-0.48438 0,-0.21875 -0.14063,-0.35937 -0.125,-0.125 -0.60937,-0.23438 -2.20313,-0.48437 -2.79688,-0.89062 -0.82812,-0.5625 -0.82812,-1.5625 0,-0.89063 0.70312,-1.5 0.71875,-0.60938 2.20313,-0.60938 1.42187,0 2.10937,0.46875 0.70313,0.45313 0.95313,1.35938 l -1.71875,0.3125 q -0.10938,-0.40625 -0.42188,-0.60938 -0.3125,-0.21875 -0.89062,-0.21875 -0.71875,0 -1.03125,0.20313 -0.20313,0.14062 -0.20313,0.35937 0,0.20313 0.1875,0.34375 0.23438,0.17188 1.6875,0.51563 1.46875,0.32812 2.0625,0.8125 0.5625,0.48437 0.5625,1.35937 0,0.95313 -0.79687,1.64063 -0.78125,0.67187 -2.34375,0.67187 -1.40625,0 -2.23438,-0.5625 -0.82812,-0.57812 -1.07812,-1.5625 z m 12.0531,-0.23437 1.82812,0.3125 q -0.34375,1 -1.10937,1.53125 -0.76563,0.51562 -1.89063,0.51562 -1.8125,0 -2.67187,-1.17187 -0.6875,-0.95313 -0.6875,-2.39063 0,-1.71875 0.89062,-2.6875 0.90625,-0.96875 2.28125,-0.96875 1.54688,0 2.4375,1.01563 0.89063,1.01562 0.84375,3.125 h -4.57812 q 0.0156,0.8125 0.4375,1.26562 0.42187,0.45313 1.0625,0.45313 0.42187,0 0.71875,-0.23438 0.29687,-0.23437 0.4375,-0.76562 z m 0.10937,-1.84375 q -0.0156,-0.79688 -0.40625,-1.20313 -0.39062,-0.42187 -0.95312,-0.42187 -0.59375,0 -0.98438,0.4375 -0.39062,0.4375 -0.39062,1.1875 z m 2.95936,1.84375 1.76562,-0.20313 q 0.0625,0.54688 0.32813,0.8125 0.28125,0.25 0.73437,0.25 0.5625,0 0.95313,-0.51562 0.40625,-0.51563 0.51562,-2.15625 -0.6875,0.79687 -1.71875,0.79687 -1.125,0 -1.95312,-0.85937 -0.8125,-0.875 -0.8125,-2.28125 0,-1.4375 0.85937,-2.32813 0.85938,-0.89062 2.20313,-0.89062 1.45312,0 2.375,1.125 0.9375,1.125 0.9375,3.6875 0,2.625 -0.96875,3.78125 -0.96875,1.15625 -2.53125,1.15625 -1.10938,0 -1.8125,-0.59375 -0.6875,-0.59375 -0.875,-1.78125 z m 4.14062,-4 q 0,-0.89063 -0.40625,-1.375 -0.40625,-0.48438 -0.95312,-0.48438 -0.5,0 -0.84375,0.40625 -0.32813,0.39063 -0.32813,1.29688 0,0.9375 0.35938,1.375 0.375,0.42187 0.92187,0.42187 0.51563,0 0.875,-0.40625 0.375,-0.42187 0.375,-1.23437 z m 7.91248,6.20312 h -1.82813 v -6.89062 q -1,0.9375 -2.375,1.39062 v -1.67187 q 0.71875,-0.23438 1.5625,-0.875 0.84375,-0.65625 1.15625,-1.53125 h 1.48438 z"
       id="path3820"
       inkscape:connector-curvature="0"
       style="fill:#000000;fill-rule:nonzero" />
    <path
       d="m 733.7533,264.6919 1.20312,0.14062 q -0.28125,1.0625 -1.0625,1.65625 -0.76562,0.57813 -1.96875,0.57813 -1.51562,0 -2.40625,-0.9375 -0.89062,-0.9375 -0.89062,-2.60938 0,-1.75 0.89062,-2.70312 0.90625,-0.96875 2.34375,-0.96875 1.39063,0 2.26563,0.9375 0.875,0.9375 0.875,2.65625 0,0.10937 0,0.3125 h -5.15625 q 0.0625,1.14062 0.64062,1.75 0.57813,0.59375 1.4375,0.59375 0.65625,0 1.10938,-0.32813 0.45312,-0.34375 0.71875,-1.07812 z m -3.84375,-1.90625 h 3.85937 q -0.0781,-0.85938 -0.4375,-1.29688 -0.5625,-0.6875 -1.45312,-0.6875 -0.8125,0 -1.35938,0.54688 -0.54687,0.53125 -0.60937,1.4375 z m 6.52185,4.125 v -6.90625 h 1.0625 v 0.98437 q 0.75,-1.14062 2.1875,-1.14062 0.625,0 1.15625,0.21875 0.53125,0.21875 0.78125,0.59375 0.26563,0.35937 0.375,0.85937 0.0625,0.32813 0.0625,1.14063 v 4.25 h -1.17187 v -4.20313 q 0,-0.71875 -0.14063,-1.0625 -0.14062,-0.35937 -0.48437,-0.5625 -0.34375,-0.21875 -0.8125,-0.21875 -0.75,0 -1.29688,0.46875 -0.54687,0.46875 -0.54687,1.79688 v 3.78125 z m 11.9281,-2.53125 1.15625,0.15625 q -0.1875,1.1875 -0.96875,1.85937 -0.78125,0.67188 -1.92187,0.67188 -1.40625,0 -2.28125,-0.92188 -0.85938,-0.9375 -0.85938,-2.65625 0,-1.125 0.375,-1.96875 0.375,-0.84375 1.125,-1.25 0.76563,-0.42187 1.65625,-0.42187 1.125,0 1.84375,0.57812 0.71875,0.5625 0.92188,1.60938 l -1.14063,0.17187 q -0.17187,-0.70312 -0.59375,-1.04687 -0.40625,-0.35938 -0.98437,-0.35938 -0.89063,0 -1.45313,0.64063 -0.54687,0.64062 -0.54687,2 0,1.40625 0.53125,2.03125 0.54687,0.625 1.40625,0.625 0.6875,0 1.14062,-0.42188 0.46875,-0.42187 0.59375,-1.29687 z m 1.71094,-0.92188 q 0,-1.92187 1.07812,-2.84375 0.89063,-0.76562 2.17188,-0.76562 1.42187,0 2.32812,0.9375 0.90625,0.92187 0.90625,2.57812 0,1.32813 -0.40625,2.09375 -0.39062,0.76563 -1.15625,1.1875 -0.76562,0.42188 -1.67187,0.42188 -1.45313,0 -2.35938,-0.92188 -0.89062,-0.9375 -0.89062,-2.6875 z m 1.20312,0 q 0,1.32813 0.57813,1.98438 0.59375,0.65625 1.46875,0.65625 0.875,0 1.45312,-0.65625 0.57813,-0.67188 0.57813,-2.03125 0,-1.28125 -0.59375,-1.9375 -0.57813,-0.65625 -1.4375,-0.65625 -0.875,0 -1.46875,0.65625 -0.57813,0.65625 -0.57813,1.98437 z m 11.13123,3.45313 v -0.875 q -0.65625,1.03125 -1.9375,1.03125 -0.8125,0 -1.51562,-0.45313 -0.6875,-0.45312 -1.07813,-1.26562 -0.375,-0.82813 -0.375,-1.89063 0,-1.03125 0.34375,-1.875 0.34375,-0.84375 1.03125,-1.28125 0.70313,-0.45312 1.54688,-0.45312 0.625,0 1.10937,0.26562 0.5,0.25 0.79688,0.67188 v -3.42188 h 1.17187 v 9.54688 z m -3.70312,-3.45313 q 0,1.32813 0.5625,1.98438 0.5625,0.65625 1.32812,0.65625 0.76563,0 1.29688,-0.625 0.53125,-0.625 0.53125,-1.90625 0,-1.42188 -0.54688,-2.07813 -0.54687,-0.67187 -1.34375,-0.67187 -0.78125,0 -1.3125,0.64062 -0.51562,0.625 -0.51562,2 z m 11.3656,1.23438 1.20312,0.14062 q -0.28125,1.0625 -1.0625,1.65625 -0.76562,0.57813 -1.96875,0.57813 -1.51562,0 -2.40625,-0.9375 -0.89062,-0.9375 -0.89062,-2.60938 0,-1.75 0.89062,-2.70312 0.90625,-0.96875 2.34375,-0.96875 1.39063,0 2.26563,0.9375 0.875,0.9375 0.875,2.65625 0,0.10937 0,0.3125 h -5.15625 q 0.0625,1.14062 0.64062,1.75 0.57813,0.59375 1.4375,0.59375 0.65625,0 1.10938,-0.32813 0.45312,-0.34375 0.71875,-1.07812 z m -3.84375,-1.90625 h 3.85937 q -0.0781,-0.85938 -0.4375,-1.29688 -0.5625,-0.6875 -1.45312,-0.6875 -0.8125,0 -1.35938,0.54688 -0.54687,0.53125 -0.60937,1.4375 z m 11.00622,4.125 v -0.875 q -0.65625,1.03125 -1.9375,1.03125 -0.8125,0 -1.51562,-0.45313 -0.6875,-0.45312 -1.07813,-1.26562 -0.375,-0.82813 -0.375,-1.89063 0,-1.03125 0.34375,-1.875 0.34375,-0.84375 1.03125,-1.28125 0.70313,-0.45312 1.54688,-0.45312 0.625,0 1.10937,0.26562 0.5,0.25 0.79688,0.67188 v -3.42188 h 1.17187 v 9.54688 z m -3.70312,-3.45313 q 0,1.32813 0.5625,1.98438 0.5625,0.65625 1.32812,0.65625 0.76563,0 1.29688,-0.625 0.53125,-0.625 0.53125,-1.90625 0,-1.42188 -0.54688,-2.07813 -0.54687,-0.67187 -1.34375,-0.67187 -0.78125,0 -1.3125,0.64062 -0.51562,0.625 -0.51562,2 z"
       id="path3822"
       inkscape:connector-curvature="0"
       style="fill:#000000;fill-rule:nonzero" />
    <path
       d="m 720.9073,282.91064 v -0.875 q -0.65625,1.03125 -1.9375,1.03125 -0.8125,0 -1.51563,-0.45313 -0.6875,-0.45312 -1.07812,-1.26562 -0.375,-0.82813 -0.375,-1.89063 0,-1.03125 0.34375,-1.875 0.34375,-0.84375 1.03125,-1.28125 0.70312,-0.45312 1.54687,-0.45312 0.625,0 1.10938,0.26562 0.5,0.25 0.79687,0.67188 v -3.42188 h 1.17188 v 9.54688 z m -3.70313,-3.45313 q 0,1.32813 0.5625,1.98438 0.5625,0.65625 1.32813,0.65625 0.76562,0 1.29687,-0.625 0.53125,-0.625 0.53125,-1.90625 0,-1.42188 -0.54687,-2.07813 -0.54688,-0.67187 -1.34375,-0.67187 -0.78125,0 -1.3125,0.64062 -0.51563,0.625 -0.51563,2 z m 11.14686,2.59375 q -0.65625,0.5625 -1.26563,0.79688 -0.59375,0.21875 -1.28125,0.21875 -1.14062,0 -1.75,-0.54688 -0.60937,-0.5625 -0.60937,-1.4375 0,-0.5 0.21875,-0.92187 0.23437,-0.42188 0.60937,-0.67188 0.375,-0.25 0.84375,-0.39062 0.34375,-0.0781 1.04688,-0.17188 1.42187,-0.17187 2.09375,-0.40625 0,-0.23437 0,-0.29687 0,-0.71875 -0.32813,-1.01563 -0.45312,-0.39062 -1.34375,-0.39062 -0.8125,0 -1.21875,0.29687 -0.39062,0.28125 -0.57812,1.01563 l -1.14063,-0.15625 q 0.15625,-0.73438 0.51563,-1.1875 0.35937,-0.45313 1.03125,-0.6875 0.67187,-0.25 1.5625,-0.25 0.89062,0 1.4375,0.20312 0.5625,0.20313 0.8125,0.53125 0.26562,0.3125 0.375,0.79688 0.0469,0.29687 0.0469,1.07812 v 1.5625 q 0,1.625 0.0781,2.0625 0.0781,0.4375 0.29687,0.82813 h -1.21875 q -0.1875,-0.35938 -0.23437,-0.85938 z m -0.0937,-2.60937 q -0.64063,0.26562 -1.92188,0.4375 -0.71875,0.10937 -1.01562,0.25 -0.29688,0.125 -0.46875,0.375 -0.15625,0.25 -0.15625,0.54687 0,0.46875 0.34375,0.78125 0.35937,0.3125 1.04687,0.3125 0.67188,0 1.20313,-0.29687 0.53125,-0.29688 0.78125,-0.8125 0.1875,-0.39063 0.1875,-1.17188 z m 5.5531,2.42187 0.17187,1.03125 q -0.5,0.10938 -0.89062,0.10938 -0.64063,0 -1,-0.20313 -0.34375,-0.20312 -0.48438,-0.53125 -0.14062,-0.32812 -0.14062,-1.39062 v -3.96875 h -0.85938 v -0.90625 h 0.85938 v -1.71875 l 1.17187,-0.70313 v 2.42188 h 1.17188 v 0.90625 h -1.17188 v 4.04687 q 0,0.5 0.0469,0.64063 0.0625,0.14062 0.20312,0.23437 0.14063,0.0781 0.40625,0.0781 0.20313,0 0.51563,-0.0469 z m 5.65612,0.1875 q -0.65625,0.5625 -1.26562,0.79688 -0.59375,0.21875 -1.28125,0.21875 -1.14063,0 -1.75,-0.54688 -0.60938,-0.5625 -0.60938,-1.4375 0,-0.5 0.21875,-0.92187 0.23438,-0.42188 0.60938,-0.67188 0.375,-0.25 0.84375,-0.39062 0.34375,-0.0781 1.04687,-0.17188 1.42188,-0.17187 2.09375,-0.40625 0,-0.23437 0,-0.29687 0,-0.71875 -0.32812,-1.01563 -0.45313,-0.39062 -1.34375,-0.39062 -0.8125,0 -1.21875,0.29687 -0.39063,0.28125 -0.57813,1.01563 l -1.14062,-0.15625 q 0.15625,-0.73438 0.51562,-1.1875 0.35938,-0.45313 1.03125,-0.6875 0.67188,-0.25 1.5625,-0.25 0.89063,0 1.4375,0.20312 0.5625,0.20313 0.8125,0.53125 0.26563,0.3125 0.375,0.79688 0.0469,0.29687 0.0469,1.07812 v 1.5625 q 0,1.625 0.0781,2.0625 0.0781,0.4375 0.29688,0.82813 h -1.21875 q -0.1875,-0.35938 -0.23438,-0.85938 z m -0.0937,-2.60937 q -0.64062,0.26562 -1.92187,0.4375 -0.71875,0.10937 -1.01563,0.25 -0.29687,0.125 -0.46875,0.375 -0.15625,0.25 -0.15625,0.54687 0,0.46875 0.34375,0.78125 0.35938,0.3125 1.04688,0.3125 0.67187,0 1.20312,-0.29687 0.53125,-0.29688 0.78125,-0.8125 0.1875,-0.39063 0.1875,-1.17188 z"
       id="path3824"
       inkscape:connector-curvature="0"
       style="fill:#000000;fill-rule:nonzero" />
    <path
       d="m 583.3318,270.11066 h 80.72443"
       id="path3826"
       inkscape:connector-curvature="0"
       style="fill:#000000;fill-opacity:0;fill-rule:evenodd" />
    <path
       d="m 583.3318,270.11066 h 74.72443"
       id="path3828"
       inkscape:connector-curvature="0"
       style="fill-rule:evenodd;stroke:#595959;stroke-width:1;stroke-linecap:butt;stroke-linejoin:round" />
    <path
       d="m 658.0562,271.7624 4.53809,-1.65173 -4.53809,-1.65174 z"
       id="path3830"
       inkscape:connector-curvature="0"
       style="fill:#595959;fill-rule:evenodd;stroke:#595959;stroke-width:1;stroke-linecap:butt" />
    <path
       d="m 595.7129,251.3227 h 63.96851 v 24.94488 H 595.7129 Z"
       id="path3832"
       inkscape:connector-curvature="0"
       style="fill:#000000;fill-opacity:0;fill-rule:evenodd" />
    <path
       d="m 596.166,259.54706 0.9375,-0.125 q 0.15625,0.79687 0.54688,1.15625 0.39062,0.34375 0.9375,0.34375 0.65625,0 1.10937,-0.45313 0.46875,-0.46875 0.46875,-1.14062 0,-0.64063 -0.42187,-1.0625 -0.42188,-0.42188 -1.07813,-0.42188 -0.26562,0 -0.65625,0.10938 l 0.10938,-0.82813 q 0.0937,0.0156 0.14062,0.0156 0.59375,0 1.07813,-0.3125 0.48437,-0.3125 0.48437,-0.96875 0,-0.51563 -0.35937,-0.84375 -0.34375,-0.34375 -0.89063,-0.34375 -0.54687,0 -0.92187,0.34375 -0.35938,0.34375 -0.45313,1.03125 l -0.9375,-0.17188 q 0.17188,-0.9375 0.78125,-1.45312 0.60938,-0.51563 1.5,-0.51563 0.625,0 1.15625,0.26563 0.53125,0.26562 0.79688,0.73437 0.28125,0.45313 0.28125,0.98438 0,0.48437 -0.26563,0.89062 -0.26562,0.40625 -0.78125,0.65625 0.67188,0.15625 1.04688,0.65625 0.375,0.48438 0.375,1.21875 0,1 -0.73438,1.70313 -0.71875,0.6875 -1.82812,0.6875 -1,0 -1.67188,-0.59375 -0.65625,-0.60938 -0.75,-1.5625 z m 6.44214,2.01562 v -1.0625 h 1.0625 v 1.0625 z m 6.51501,0 h -0.85937 v -7.625 h 0.9375 v 2.71875 q 0.59375,-0.75 1.5,-0.75 0.51562,0 0.96875,0.21875 0.45312,0.20313 0.75,0.57813 0.29687,0.35937 0.45312,0.89062 0.17188,0.53125 0.17188,1.125 0,1.42188 -0.70313,2.20313 -0.70312,0.76562 -1.6875,0.76562 -0.96875,0 -1.53125,-0.8125 z m 0,-2.79687 q 0,0.98437 0.26563,1.42187 0.4375,0.73438 1.1875,0.73438 0.625,0 1.0625,-0.53125 0.45312,-0.54688 0.45312,-1.59375 0,-1.07813 -0.4375,-1.59375 -0.42187,-0.51563 -1.03125,-0.51563 -0.60937,0 -1.0625,0.53125 -0.4375,0.53125 -0.4375,1.54688 z m 8.67652,2.10937 q -0.53125,0.45313 -1.01563,0.64063 -0.46875,0.17187 -1.01562,0.17187 -0.92188,0 -1.40625,-0.4375 -0.48438,-0.45312 -0.48438,-1.14062 0,-0.40625 0.17188,-0.73438 0.1875,-0.34375 0.48437,-0.54687 0.3125,-0.20313 0.6875,-0.3125 0.26563,-0.0625 0.82813,-0.14063 1.125,-0.125 1.67187,-0.3125 0,-0.20312 0,-0.25 0,-0.57812 -0.26562,-0.8125 -0.35938,-0.3125 -1.0625,-0.3125 -0.65625,0 -0.98438,0.23438 -0.3125,0.23437 -0.45312,0.8125 l -0.92188,-0.125 q 0.125,-0.57813 0.40625,-0.9375 0.29688,-0.375 0.82813,-0.5625 0.54687,-0.20313 1.25,-0.20313 0.71875,0 1.15625,0.17188 0.4375,0.17187 0.64062,0.42187 0.21875,0.25 0.29688,0.64063 0.0469,0.23437 0.0469,0.85937 v 1.25 q 0,1.29688 0.0625,1.65625 0.0625,0.34375 0.23438,0.65625 h -0.96875 q -0.15625,-0.29687 -0.1875,-0.6875 z m -0.0781,-2.07812 q -0.51562,0.20312 -1.53125,0.34375 -0.57812,0.0781 -0.82812,0.1875 -0.23438,0.10937 -0.35938,0.3125 -0.125,0.1875 -0.125,0.4375 0,0.375 0.28125,0.625 0.28125,0.25 0.82813,0.25 0.53125,0 0.95312,-0.23438 0.42188,-0.23437 0.625,-0.65625 0.15625,-0.3125 0.15625,-0.9375 z m 2.02027,1.10937 0.92187,-0.14062 q 0.0781,0.5625 0.4375,0.85937 0.35938,0.29688 1,0.29688 0.64063,0 0.95313,-0.26563 0.3125,-0.26562 0.3125,-0.625 0,-0.3125 -0.28125,-0.5 -0.1875,-0.125 -0.95313,-0.3125 -1.03125,-0.26562 -1.4375,-0.45312 -0.39062,-0.1875 -0.59375,-0.51563 -0.20312,-0.34375 -0.20312,-0.75 0,-0.35937 0.17187,-0.67187 0.17188,-0.32813 0.45313,-0.53125 0.21875,-0.15625 0.59375,-0.26563 0.39062,-0.125 0.8125,-0.125 0.65625,0 1.14062,0.1875 0.5,0.1875 0.73438,0.51563 0.23437,0.3125 0.3125,0.85937 l -0.90625,0.125 q -0.0625,-0.4375 -0.375,-0.67187 -0.29688,-0.23438 -0.82813,-0.23438 -0.65625,0 -0.9375,0.21875 -0.26562,0.20313 -0.26562,0.48438 0,0.1875 0.10937,0.32812 0.125,0.15625 0.35938,0.25 0.14062,0.0625 0.82812,0.25 1,0.26563 1.39063,0.4375 0.39062,0.15625 0.60937,0.48438 0.23438,0.3125 0.23438,0.79687 0,0.46875 -0.28125,0.89063 -0.26563,0.40625 -0.78125,0.64062 -0.51563,0.21875 -1.17188,0.21875 -1.07812,0 -1.64062,-0.4375 -0.5625,-0.45312 -0.71875,-1.34375 z m 9.48437,-0.125 0.96875,0.125 q -0.23437,0.84375 -0.85937,1.3125 -0.60938,0.46875 -1.57813,0.46875 -1.20312,0 -1.92187,-0.75 -0.70313,-0.75 -0.70313,-2.09375 0,-1.39062 0.71875,-2.15625 0.71875,-0.78125 1.85938,-0.78125 1.10937,0 1.8125,0.76563 0.70312,0.75 0.70312,2.125 0,0.0781 0,0.23437 h -4.125 q 0.0469,0.92188 0.51563,1.40625 0.46875,0.48438 1.15625,0.48438 0.51562,0 0.875,-0.26563 0.35937,-0.28125 0.57812,-0.875 z m -3.07812,-1.51562 h 3.09375 q -0.0625,-0.6875 -0.35938,-1.04688 -0.45312,-0.53125 -1.15625,-0.53125 -0.64062,0 -1.09375,0.4375 -0.4375,0.42188 -0.48437,1.14063 z m 5.09838,1.53125 0.90625,-0.0781 q 0.10938,0.625 0.4375,0.92188 0.32813,0.28125 0.82813,0.28125 0.42187,0 0.75,-0.1875 0.32812,-0.20313 0.53125,-0.53125 0.21875,-0.34375 0.35937,-0.89063 0.14063,-0.5625 0.14063,-1.15625 0,-0.0625 -0.0156,-0.1875 -0.28125,0.45313 -0.76562,0.73438 -0.48438,0.26562 -1.04688,0.26562 -0.95312,0 -1.60937,-0.67187 -0.65625,-0.6875 -0.65625,-1.8125 0,-1.17188 0.6875,-1.875 0.6875,-0.70313 1.71875,-0.70313 0.73437,0 1.34375,0.40625 0.625,0.39063 0.9375,1.14063 0.32812,0.73437 0.32812,2.14062 0,1.45313 -0.3125,2.32813 -0.3125,0.85937 -0.95312,1.3125 -0.625,0.45312 -1.46875,0.45312 -0.89063,0 -1.45313,-0.48437 -0.5625,-0.5 -0.6875,-1.40625 z m 3.84375,-3.35938 q 0,-0.8125 -0.4375,-1.28125 -0.42187,-0.48437 -1.03125,-0.48437 -0.625,0 -1.09375,0.51562 -0.45312,0.51563 -0.45312,1.32813 0,0.71875 0.4375,1.1875 0.4375,0.45312 1.07812,0.45312 0.65625,0 1.07813,-0.45312 0.42187,-0.46875 0.42187,-1.26563 z m 5.47333,5.125 h -0.9375 v -5.96875 q -0.34375,0.32813 -0.89062,0.65625 -0.54688,0.3125 -0.98438,0.46875 v -0.90625 q 0.79688,-0.35937 1.375,-0.89062 0.59375,-0.53125 0.82813,-1.01563 h 0.60937 z"
       id="path3834"
       inkscape:connector-curvature="0"
       style="fill:#000000;fill-rule:nonzero" />
    <path
       d="m 792.97485,270.11066 68.09448,-0.12598"
       id="path3836"
       inkscape:connector-curvature="0"
       style="fill:#000000;fill-opacity:0;fill-rule:evenodd" />
    <path
       d="m 792.9748,270.11066 62.09454,-0.11487"
       id="path3838"
       inkscape:connector-curvature="0"
       style="fill-rule:evenodd;stroke:#595959;stroke-width:1;stroke-linecap:butt;stroke-linejoin:round" />
    <path
       d="m 855.0724,271.64752 4.53503,-1.66013 -4.54113,-1.64334 z"
       id="path3840"
       inkscape:connector-curvature="0"
       style="fill:#595959;fill-rule:evenodd;stroke:#595959;stroke-width:1;stroke-linecap:butt" />
    <path
       d="m 805.3481,251.3227 h 63.96851 v 24.94488 H 805.3481 Z"
       id="path3842"
       inkscape:connector-curvature="0"
       style="fill:#000000;fill-opacity:0;fill-rule:evenodd" />
    <path
       d="m 808.7856,261.56268 v -1.82813 h -3.29687 v -0.85937 l 3.46875,-4.9375 h 0.76562 v 4.9375 h 1.03125 v 0.85937 h -1.03125 v 1.82813 z m 0,-2.6875 v -3.4375 l -2.375,3.4375 z m 3.45776,2.6875 v -1.0625 h 1.0625 v 1.0625 z m 5.28064,-1.65625 0.92188,-0.14063 q 0.0781,0.5625 0.4375,0.85938 0.35937,0.29687 1,0.29687 0.64062,0 0.95312,-0.26562 0.3125,-0.26563 0.3125,-0.625 0,-0.3125 -0.28125,-0.5 -0.1875,-0.125 -0.95312,-0.3125 -1.03125,-0.26563 -1.4375,-0.45313 -0.39063,-0.1875 -0.59375,-0.51562 -0.20313,-0.34375 -0.20313,-0.75 0,-0.35938 0.17188,-0.67188 0.17187,-0.32812 0.45312,-0.53125 0.21875,-0.15625 0.59375,-0.26562 0.39063,-0.125 0.8125,-0.125 0.65625,0 1.14063,0.1875 0.5,0.1875 0.73437,0.51562 0.23438,0.3125 0.3125,0.85938 l -0.90625,0.125 q -0.0625,-0.4375 -0.375,-0.67188 -0.29687,-0.23437 -0.82812,-0.23437 -0.65625,0 -0.9375,0.21875 -0.26563,0.20312 -0.26563,0.48437 0,0.1875 0.10938,0.32813 0.125,0.15625 0.35937,0.25 0.14063,0.0625 0.82813,0.25 1,0.26562 1.39062,0.4375 0.39063,0.15625 0.60938,0.48437 0.23437,0.3125 0.23437,0.79688 0,0.46875 -0.28125,0.89062 -0.26562,0.40625 -0.78125,0.64063 -0.51562,0.21875 -1.17187,0.21875 -1.07813,0 -1.64063,-0.4375 -0.5625,-0.45313 -0.71875,-1.34375 z m 9.3125,0.96875 q -0.53125,0.45312 -1.01562,0.64062 -0.46875,0.17188 -1.01563,0.17188 -0.92187,0 -1.40625,-0.4375 -0.48437,-0.45313 -0.48437,-1.14063 0,-0.40625 0.17187,-0.73437 0.1875,-0.34375 0.48438,-0.54688 0.3125,-0.20312 0.6875,-0.3125 0.26562,-0.0625 0.82812,-0.14062 1.125,-0.125 1.67188,-0.3125 0,-0.20313 0,-0.25 0,-0.57813 -0.26563,-0.8125 -0.35937,-0.3125 -1.0625,-0.3125 -0.65625,0 -0.98437,0.23437 -0.3125,0.23438 -0.45313,0.8125 l -0.92187,-0.125 q 0.125,-0.57812 0.40625,-0.9375 0.29687,-0.375 0.82812,-0.5625 0.54688,-0.20312 1.25,-0.20312 0.71875,0 1.15625,0.17187 0.4375,0.17188 0.64063,0.42188 0.21875,0.25 0.29687,0.64062 0.0469,0.23438 0.0469,0.85938 v 1.25 q 0,1.29687 0.0625,1.65625 0.0625,0.34375 0.23437,0.65625 H 827.024 q -0.15625,-0.29688 -0.1875,-0.6875 z m -0.0781,-2.07813 q -0.51563,0.20313 -1.53125,0.34375 -0.57813,0.0781 -0.82813,0.1875 -0.23437,0.10938 -0.35937,0.3125 -0.125,0.1875 -0.125,0.4375 0,0.375 0.28125,0.625 0.28125,0.25 0.82812,0.25 0.53125,0 0.95313,-0.23437 0.42187,-0.23438 0.625,-0.65625 0.15625,-0.3125 0.15625,-0.9375 z m 3.92651,2.76563 -2.09375,-5.53125 h 0.98438 l 1.1875,3.3125 q 0.1875,0.53125 0.35937,1.10937 0.10938,-0.4375 0.34375,-1.04687 l 1.21875,-3.375 h 0.96875 l -2.09375,5.53125 z m 7.57813,-1.78125 0.96875,0.125 q -0.23438,0.84375 -0.85938,1.3125 -0.60937,0.46875 -1.57812,0.46875 -1.20313,0 -1.92188,-0.75 -0.70312,-0.75 -0.70312,-2.09375 0,-1.39063 0.71875,-2.15625 0.71875,-0.78125 1.85937,-0.78125 1.10938,0 1.8125,0.76562 0.70313,0.75 0.70313,2.125 0,0.0781 0,0.23438 h -4.125 q 0.0469,0.92187 0.51562,1.40625 0.46875,0.48437 1.15625,0.48437 0.51563,0 0.875,-0.26562 0.35938,-0.28125 0.57813,-0.875 z m -3.07813,-1.51563 h 3.09375 q -0.0625,-0.6875 -0.35937,-1.04687 -0.45313,-0.53125 -1.15625,-0.53125 -0.64063,0 -1.09375,0.4375 -0.4375,0.42187 -0.48438,1.14062 z"
       id="path3844"
       inkscape:connector-curvature="0"
       style="fill:#000000;fill-rule:nonzero" />
    <path
       d="m 861.0669,270.00003 v 0 c 0,-22.55237 18.07074,-40.83466 40.36218,-40.83466 v 0 c 10.70471,0 20.97101,4.30222 28.54041,11.96019 7.56939,7.65799 11.82184,18.04445 11.82184,28.87447 v 0 c 0,22.55234 -18.0708,40.83462 -40.36225,40.83462 v 0 c -22.29144,0 -40.36218,-18.28228 -40.36218,-40.83462 z"
       id="path3846"
       inkscape:connector-curvature="0"
       style="fill:#fce5cd;fill-rule:evenodd" />
    <path
       d="m 861.0669,270.00003 v 0 c 0,-22.55237 18.07074,-40.83466 40.36218,-40.83466 v 0 c 10.70471,0 20.97101,4.30222 28.54041,11.96019 7.56939,7.65799 11.82184,18.04445 11.82184,28.87447 v 0 c 0,22.55234 -18.0708,40.83462 -40.36225,40.83462 v 0 c -22.29144,0 -40.36218,-18.28228 -40.36218,-40.83462 z"
       id="path3848"
       inkscape:connector-curvature="0"
       style="fill-rule:evenodd;stroke:#595959;stroke-width:1;stroke-linecap:butt;stroke-linejoin:round" />
    <path
       d="m 885.9771,255.70627 1.875,-0.0937 q 0.0312,0.89063 0.29687,1.20313 0.4375,0.5 1.59375,0.5 0.96875,0 1.39063,-0.34375 0.4375,-0.34375 0.4375,-0.82813 0,-0.42187 -0.35938,-0.71875 -0.25,-0.20312 -1.35937,-0.6875 -1.10938,-0.48437 -1.625,-0.79687 -0.5,-0.32813 -0.79688,-0.84375 -0.29687,-0.51563 -0.29687,-1.20313 0,-1.20312 0.875,-2 0.875,-0.79687 2.53125,-0.79687 1.67187,0 2.59375,0.79687 0.92187,0.78125 1.01562,2.09375 l -1.89062,0.0781 q -0.0625,-0.6875 -0.48438,-1.04688 -0.42187,-0.35937 -1.25,-0.35937 -0.8125,0 -1.17187,0.28125 -0.34375,0.28125 -0.34375,0.71875 0,0.40625 0.32812,0.67187 0.3125,0.28125 1.40625,0.75 1.64063,0.71875 2.09375,1.15625 0.67188,0.65625 0.67188,1.67188 0,1.26562 -1,2.15625 -1,0.89062 -2.78125,0.89062 -1.23438,0 -2.14063,-0.40625 -0.89062,-0.40625 -1.26562,-1.14062 -0.375,-0.75 -0.34375,-1.70313 z m 9.04602,-2.4375 0.28125,-1.375 h 0.92188 l 0.21875,-1.10938 2.14062,-1.29687 -0.5,2.40625 h 1.14063 l -0.28125,1.375 h -1.14063 l -0.60937,2.90625 q -0.17188,0.78125 -0.17188,0.89063 0,0.21875 0.14063,0.34375 0.14062,0.10937 0.5,0.10937 0.125,0 0.60937,-0.0469 l -0.28125,1.39062 q -0.48437,0.0937 -1,0.0937 -0.98437,0 -1.4375,-0.375 -0.4375,-0.375 -0.4375,-1.0625 0,-0.3125 0.23438,-1.46875 l 0.57812,-2.78125 z m 6.61023,0.57812 -1.82813,-0.15625 q 0.3125,-0.92187 1.09375,-1.4375 0.78125,-0.53125 2.0625,-0.53125 1.32813,0 1.96875,0.54688 0.64063,0.53125 0.64063,1.3125 0,0.3125 -0.0625,0.67187 -0.0469,0.34375 -0.375,1.82813 -0.28125,1.23438 -0.28125,1.73438 0,0.4375 0.15625,0.98437 h -1.8125 q -0.10938,-0.375 -0.14063,-0.78125 -0.40625,0.45313 -0.9375,0.70313 -0.53125,0.23437 -1.07812,0.23437 -0.85938,0 -1.42188,-0.5625 -0.5625,-0.5625 -0.5625,-1.4375 0,-1 0.60938,-1.57812 0.625,-0.59375 2.20312,-0.71875 1.34375,-0.10938 1.78125,-0.26563 0.125,-0.39062 0.125,-0.625 0,-0.3125 -0.25,-0.5 -0.23437,-0.20312 -0.70312,-0.20312 -0.5,0 -0.79688,0.20312 -0.28125,0.20313 -0.39062,0.57812 z m 1.78125,1.73438 q -0.17188,0.0469 -0.45313,0.0781 -1.40625,0.17188 -1.84375,0.50001 -0.29687,0.23437 -0.29687,0.625 0,0.32812 0.23437,0.5625 0.23438,0.21875 0.60938,0.21875 0.42187,0 0.79687,-0.20313 0.375,-0.20312 0.5625,-0.53125 0.1875,-0.32812 0.32813,-1 z m 3.45935,-2.3125 0.28125,-1.375 h 0.92188 l 0.21875,-1.10938 2.14062,-1.29687 -0.5,2.40625 h 1.14063 l -0.28125,1.375 h -1.14063 l -0.60937,2.90625 q -0.17188,0.78125 -0.17188,0.89063 0,0.21875 0.14063,0.34375 0.14062,0.10937 0.5,0.10937 0.125,0 0.60937,-0.0469 l -0.28125,1.39062 q -0.48437,0.0937 -1,0.0937 -0.98437,0 -1.4375,-0.375 -0.4375,-0.375 -0.4375,-1.0625 0,-0.3125 0.23438,-1.46875 l 0.57812,-2.78125 z m 10.70398,2.65625 h -4.6875 q 0,0.10938 0,0.17188 0,0.6875 0.39063,1.10937 0.39062,0.42188 0.95312,0.42188 0.9375,0 1.45313,-0.96875 l 1.67187,0.28125 q -0.48437,1.01562 -1.3125,1.51562 -0.8125,0.5 -1.82812,0.5 -1.39063,0 -2.26563,-0.875 -0.85937,-0.875 -0.85937,-2.32812 0,-1.42188 0.78125,-2.53125 1.07812,-1.5 3.0625,-1.5 1.26562,0 2.01562,0.79687 0.75,0.78125 0.75,2.1875 0,0.67188 -0.125,1.21875 z m -1.57812,-1.14063 q 0,-0.125 0,-0.1875 0,-0.76562 -0.34375,-1.14062 -0.34375,-0.39063 -0.92188,-0.39063 -0.57812,0 -1.04687,0.4375 -0.45313,0.42188 -0.60938,1.28125 z"
       id="path3850"
       inkscape:connector-curvature="0"
       style="fill:#000000;fill-rule:nonzero" />
    <path
       d="m 878.50134,272.73752 1.15625,-0.1875 q 0.10938,0.70313 0.54688,1.07813 0.45312,0.35937 1.25,0.35937 0.8125,0 1.20312,-0.32812 0.39063,-0.32813 0.39063,-0.76563 0,-0.39062 -0.35938,-0.625 -0.23437,-0.15625 -1.1875,-0.39062 -1.29687,-0.32813 -1.79687,-0.5625 -0.48438,-0.25 -0.75,-0.65625 -0.25,-0.42188 -0.25,-0.9375 0,-0.45313 0.20312,-0.84375 0.21875,-0.40625 0.57813,-0.67188 0.28125,-0.1875 0.75,-0.32812 0.46875,-0.14063 1.01562,-0.14063 0.8125,0 1.42188,0.23438 0.60937,0.23437 0.90625,0.64062 0.29687,0.39063 0.40625,1.0625 l -1.14063,0.15625 q -0.0781,-0.53125 -0.45312,-0.82812 -0.375,-0.3125 -1.0625,-0.3125 -0.8125,0 -1.15625,0.26562 -0.34375,0.26563 -0.34375,0.625 0,0.23438 0.14062,0.42188 0.15625,0.1875 0.45313,0.3125 0.17187,0.0625 1.03125,0.29687 1.25,0.32813 1.73437,0.54688 0.5,0.20312 0.78125,0.60937 0.28125,0.40625 0.28125,1 0,0.59375 -0.34375,1.10938 -0.34375,0.51562 -1,0.79687 -0.64062,0.28125 -1.45312,0.28125 -1.34375,0 -2.04688,-0.5625 -0.70312,-0.5625 -0.90625,-1.65625 z m 9.69531,1.01563 0.17188,1.03125 q -0.5,0.10937 -0.89063,0.10937 -0.64062,0 -1,-0.20312 -0.34375,-0.20313 -0.48437,-0.53125 -0.14063,-0.32813 -0.14063,-1.39063 v -3.96875 h -0.85937 v -0.90625 h 0.85937 v -1.71875 l 1.17188,-0.70312 v 2.42187 h 1.17187 v 0.90625 h -1.17187 v 4.04688 q 0,0.5 0.0469,0.64062 0.0625,0.14063 0.20313,0.23438 0.14062,0.0781 0.40625,0.0781 0.20312,0 0.51562,-0.0469 z m 1.12488,1.04687 v -6.90625 h 1.0625 v 1.04688 q 0.40625,-0.73438 0.73438,-0.96875 0.34375,-0.23438 0.76562,-0.23438 0.59375,0 1.20313,0.375 l -0.40625,1.07813 q -0.4375,-0.25 -0.85938,-0.25 -0.39062,0 -0.70312,0.23437 -0.29688,0.23438 -0.42188,0.64063 -0.20312,0.625 -0.20312,1.35937 v 3.625 z m 4.4696,-8.1875 v -1.35937 h 1.17188 v 1.35937 z m 0,8.1875 v -6.90625 h 1.17188 v 6.90625 z m 2.94544,0 v -6.90625 h 1.0625 v 0.98438 q 0.75,-1.14063 2.1875,-1.14063 0.625,0 1.15625,0.21875 0.53125,0.21875 0.78125,0.59375 0.26562,0.35938 0.375,0.85938 0.0625,0.32812 0.0625,1.14062 v 4.25 h -1.17188 v -4.20312 q 0,-0.71875 -0.14062,-1.0625 -0.14063,-0.35938 -0.48438,-0.5625 -0.34375,-0.21875 -0.8125,-0.21875 -0.75,0 -1.29687,0.46875 -0.54688,0.46875 -0.54688,1.79687 v 3.78125 z m 7.19373,0.57813 1.14062,0.15625 q 0.0781,0.53125 0.40625,0.78125 0.4375,0.3125 1.1875,0.3125 0.8125,0 1.25,-0.32813 0.45313,-0.3125 0.60938,-0.90625 0.0937,-0.35937 0.0781,-1.5 -0.76562,0.90625 -1.90625,0.90625 -1.4375,0 -2.21875,-1.03125 -0.78125,-1.03125 -0.78125,-2.46875 0,-0.98437 0.35938,-1.8125 0.35937,-0.84375 1.03125,-1.29687 0.6875,-0.45313 1.60937,-0.45313 1.21875,0 2.01563,0.98438 v -0.82813 h 1.07812 v 5.96875 q 0,1.60938 -0.32812,2.28125 -0.32813,0.6875 -1.04688,1.07813 -0.70312,0.39062 -1.75,0.39062 -1.23437,0 -2,-0.5625 -0.75,-0.5625 -0.73437,-1.67187 z m 0.98437,-4.15625 q 0,1.35937 0.53125,1.98437 0.54688,0.625 1.35938,0.625 0.79687,0 1.34375,-0.625 0.54687,-0.625 0.54687,-1.95312 0,-1.26563 -0.5625,-1.90625 -0.5625,-0.64063 -1.35937,-0.64063 -0.76563,0 -1.3125,0.64063 -0.54688,0.625 -0.54688,1.875 z m 10.36548,-4.60938 v -1.35937 h 1.17187 v 1.35937 z m 0,8.1875 v -6.90625 h 1.17187 v 6.90625 z m 2.94549,0 v -6.90625 h 1.0625 v 0.98438 q 0.75,-1.14063 2.1875,-1.14063 0.625,0 1.15625,0.21875 0.53125,0.21875 0.78125,0.59375 0.26563,0.35938 0.375,0.85938 0.0625,0.32812 0.0625,1.14062 v 4.25 h -1.17187 v -4.20312 q 0,-0.71875 -0.14063,-1.0625 -0.14062,-0.35938 -0.48437,-0.5625 -0.34375,-0.21875 -0.8125,-0.21875 -0.75,0 -1.29688,0.46875 -0.54687,0.46875 -0.54687,1.79687 v 3.78125 z"
       id="path3852"
       inkscape:connector-curvature="0"
       style="fill:#000000;fill-rule:nonzero" />
    <path
       d="m 894.8195,287.45627 1.26562,0.3125 q -0.39062,1.5625 -1.42187,2.375 -1.03125,0.8125 -2.53125,0.8125 -1.53125,0 -2.5,-0.625 -0.96875,-0.625 -1.48438,-1.8125 -0.5,-1.1875 -0.5,-2.5625 0,-1.48437 0.5625,-2.59375 0.57813,-1.10937 1.625,-1.6875 1.0625,-0.57812 2.32813,-0.57812 1.42187,0 2.39062,0.73437 0.98438,0.71875 1.375,2.04688 l -1.25,0.29687 q -0.32812,-1.04687 -0.96875,-1.51562 -0.625,-0.48438 -1.57812,-0.48438 -1.09375,0 -1.84375,0.53125 -0.73438,0.53125 -1.03125,1.42188 -0.29688,0.875 -0.29688,1.82812 0,1.21875 0.34375,2.125 0.35938,0.90625 1.10938,1.35938 0.75,0.4375 1.625,0.4375 1.0625,0 1.79687,-0.60938 0.73438,-0.60937 0.98438,-1.8125 z m 2.84387,3.34375 v -9.54687 h 4.23438 q 1.26562,0 1.92187,0.26562 0.67188,0.25 1.0625,0.90625 0.40625,0.65625 0.40625,1.4375 0,1.01563 -0.65625,1.71875 -0.65625,0.6875 -2.03125,0.875 0.5,0.25 0.76563,0.48438 0.54687,0.5 1.04687,1.26562 l 1.65625,2.59375 h -1.57812 l -1.26563,-1.98437 q -0.5625,-0.85938 -0.92187,-1.3125 -0.34375,-0.45313 -0.64063,-0.64063 -0.28125,-0.1875 -0.5625,-0.25 -0.21875,-0.0469 -0.70312,-0.0469 H 898.929 v 4.23437 z m 1.26563,-5.32812 h 2.71875 q 0.85937,0 1.34375,-0.17188 0.48437,-0.1875 0.73437,-0.57812 0.26563,-0.39063 0.26563,-0.85938 0,-0.67187 -0.5,-1.10937 -0.48438,-0.4375 -1.54688,-0.4375 H 898.929 Z m 8.34393,5.32812 v -9.54687 h 3.28125 q 1.10937,0 1.70312,0.14062 0.8125,0.1875 1.39063,0.6875 0.76562,0.64063 1.14062,1.64063 0.375,0.98437 0.375,2.25 0,1.09375 -0.26562,1.9375 -0.25,0.82812 -0.65625,1.39062 -0.39063,0.54688 -0.85938,0.85938 -0.46875,0.3125 -1.14062,0.48437 -0.65625,0.15625 -1.53125,0.15625 z m 1.26562,-1.125 h 2.03125 q 0.9375,0 1.46875,-0.17187 0.54688,-0.1875 0.875,-0.5 0.4375,-0.45313 0.6875,-1.20313 0.25,-0.76562 0.25,-1.84375 0,-1.5 -0.5,-2.29687 -0.48437,-0.8125 -1.1875,-1.07813 -0.5,-0.20312 -1.625,-0.20312 h -2 z"
       id="path3854"
       inkscape:connector-curvature="0"
       style="fill:#000000;fill-rule:nonzero" />
  </g>
  <rect
     id="rect3866"
     width="953.32526"
     height="225.27206"
     x="-5.8766627"
     y="-83.579201" />
  <rect
     id="rect3868"
     width="940.26605"
     height="116.88029"
     x="-1.9588876"
     y="-9.1414795" />
  <rect
     id="rect3872"
     width="165.19952"
     height="112.30956"
     x="33.301086"
     y="-56.154778" />
  <rect
     id="rect3874"
     width="938.96014"
     height="91.414749"
     x="-0.65296268"
     y="16.324059" />
  <rect
     id="rect3880"
     width="937.65417"
     height="116.22733"
     x="0"
     y="0" />
</svg>
