<svg xmlns="http://www.w3.org/2000/svg" width="13.848" height="15.724" viewBox="0 0 13.848 15.724"><g transform="translate(0)" opacity="0.4"><path d="M291.895,87.1h2.138l-2.138-2.13Zm0,0" transform="translate(-282.946 -82.359)" fill="#1c2c41"/><path d="M8.528,79.008V76.192h-7.5a.528.528,0,0,0-.527.527v12.33a.528.528,0,0,0,.527.527h10.3a.528.528,0,0,0,.527-.527V79.513H9.033a.506.506,0,0,1-.5-.505Zm0,0" transform="translate(-0.501 -73.852)" fill="#1c2c41"/><path d="M92.4,0H82.1a.528.528,0,0,0-.527.527V1.45h6.4a.605.605,0,0,1,.431.178l2.739,2.729a.606.606,0,0,1,.179.431v8.595H92.4a.528.528,0,0,0,.527-.527V.527A.528.528,0,0,0,92.4,0Zm0,0" transform="translate(-79.081 0)" fill="#1c2c41"/></g></svg>