<svg xmlns="http://www.w3.org/2000/svg" width="18.015" height="16.629" viewBox="0 0 18.015 16.629"><g transform="translate(0 0)"><path d="M17.712,299.931a1,1,0,0,0-.736-.3H11.952L10.48,301.1a2.091,2.091,0,0,1-2.945,0l-1.462-1.472H1.039a1,1,0,0,0-.736.3,1,1,0,0,0-.3.736v3.464a1,1,0,0,0,.3.736,1,1,0,0,0,.736.3H16.976a1.035,1.035,0,0,0,1.039-1.039v-3.464A1,1,0,0,0,17.712,299.931Zm-4.06,3.648a.68.68,0,1,1,.206-.487A.667.667,0,0,1,13.652,303.58Zm2.771,0a.679.679,0,1,1,.206-.487A.666.666,0,0,1,16.423,303.58Z" transform="translate(0 -288.542)" fill="#73b9c2"/><path d="M92.908,29.2a.68.68,0,0,0,.974,0l4.85-4.85a.625.625,0,0,0,.152-.758.647.647,0,0,0-.639-.422H95.474v-4.85a.7.7,0,0,0-.693-.693H92.009a.7.7,0,0,0-.693.693v4.85H88.545a.647.647,0,0,0-.639.422.625.625,0,0,0,.152.758Z" transform="translate(-84.388 -17.623)" fill="#73b9c2"/></g></svg>